<svg width="18" height="18" viewBox="0 0 18 18" fill="none" xmlns="http://www.w3.org/2000/svg">
<path d="M9.00012 17.0623C8.49762 17.0623 7.98762 16.9348 7.53762 16.6723L3.08262 14.0998C2.18262 13.5748 1.62012 12.6073 1.62012 11.5648V6.43484C1.62012 5.39234 2.18262 4.42484 3.08262 3.89984L7.53762 1.32734C8.43762 0.802344 9.55512 0.802344 10.4626 1.32734L14.9176 3.89984C15.8176 4.42484 16.3801 5.39234 16.3801 6.43484V11.5648C16.3801 12.6073 15.8176 13.5748 14.9176 14.0998L10.4626 16.6723C10.0126 16.9348 9.50262 17.0623 9.00012 17.0623ZM9.00012 2.06233C8.69262 2.06233 8.37762 2.14483 8.10012 2.30233L3.64512 4.87483C3.09012 5.19733 2.74512 5.78984 2.74512 6.43484V11.5648C2.74512 12.2023 3.09012 12.8023 3.64512 13.1248L8.10012 15.6973C8.65512 16.0198 9.34512 16.0198 9.90012 15.6973L14.3551 13.1248C14.9101 12.8023 15.2551 12.2098 15.2551 11.5648V6.43484C15.2551 5.79734 14.9101 5.19733 14.3551 4.87483L9.90012 2.30233C9.62262 2.14483 9.30762 2.06233 9.00012 2.06233Z" fill="#1F1F1F"/>
<path d="M8.99994 8.81261C7.72494 8.81261 6.68994 7.77759 6.68994 6.50259C6.68994 5.22759 7.72494 4.19263 8.99994 4.19263C10.2749 4.19263 11.3099 5.22759 11.3099 6.50259C11.3099 7.77759 10.2749 8.81261 8.99994 8.81261ZM8.99994 5.31763C8.34744 5.31763 7.81494 5.85009 7.81494 6.50259C7.81494 7.15509 8.34744 7.68761 8.99994 7.68761C9.65244 7.68761 10.1849 7.15509 10.1849 6.50259C10.1849 5.85009 9.65244 5.31763 8.99994 5.31763Z" fill="#1F1F1F"/>
<path d="M12 13.0575C11.6925 13.0575 11.4375 12.8025 11.4375 12.495C11.4375 11.46 10.3425 10.6125 9 10.6125C7.6575 10.6125 6.5625 11.46 6.5625 12.495C6.5625 12.8025 6.3075 13.0575 6 13.0575C5.6925 13.0575 5.4375 12.8025 5.4375 12.495C5.4375 10.8375 7.035 9.48755 9 9.48755C10.965 9.48755 12.5625 10.8375 12.5625 12.495C12.5625 12.8025 12.3075 13.0575 12 13.0575Z" fill="#1F1F1F"/>
</svg>
