<svg width="18" height="18" viewBox="0 0 18 18" fill="none" xmlns="http://www.w3.org/2000/svg">
<path d="M5.25 11.0176C4.9425 11.0176 4.6875 10.7626 4.6875 10.4551V8.04761C4.6875 7.74011 4.9425 7.48511 5.25 7.48511C5.5575 7.48511 5.8125 7.74011 5.8125 8.04761V10.4551C5.8125 10.7701 5.5575 11.0176 5.25 11.0176Z" fill="black" fill-opacity="0.87"/>
<path d="M9 12.3225C8.6925 12.3225 8.4375 12.0675 8.4375 11.76V6.75C8.4375 6.4425 8.6925 6.1875 9 6.1875C9.3075 6.1875 9.5625 6.4425 9.5625 6.75V11.76C9.5625 12.0675 9.3075 12.3225 9 12.3225Z" fill="black" fill-opacity="0.87"/>
<path d="M12.75 11.0176C12.4425 11.0176 12.1875 10.7626 12.1875 10.4551V8.04761C12.1875 7.74011 12.4425 7.48511 12.75 7.48511C13.0575 7.48511 13.3125 7.74011 13.3125 8.04761V10.4551C13.3125 10.7701 13.0575 11.0176 12.75 11.0176Z" fill="black" fill-opacity="0.87"/>
<path d="M11.25 17.0625H6.75C2.6775 17.0625 0.9375 15.3225 0.9375 11.25V6.75C0.9375 2.6775 2.6775 0.9375 6.75 0.9375H11.25C15.3225 0.9375 17.0625 2.6775 17.0625 6.75V11.25C17.0625 15.3225 15.3225 17.0625 11.25 17.0625ZM6.75 2.0625C3.2925 2.0625 2.0625 3.2925 2.0625 6.75V11.25C2.0625 14.7075 3.2925 15.9375 6.75 15.9375H11.25C14.7075 15.9375 15.9375 14.7075 15.9375 11.25V6.75C15.9375 3.2925 14.7075 2.0625 11.25 2.0625H6.75Z" fill="black" fill-opacity="0.87"/>
</svg>
