<svg width="18" height="18" viewBox="0 0 18 18" fill="none" xmlns="http://www.w3.org/2000/svg">
<path d="M12.1425 1.5H5.8575C3.1275 1.5 1.5 3.1275 1.5 5.8575V12.1425C1.5 14.8725 3.1275 16.5 5.8575 16.5H12.1425C14.8725 16.5 16.5 14.8725 16.5 12.1425V5.8575C16.5 3.1275 14.8725 1.5 12.1425 1.5ZM5.8125 10.2C5.8125 10.5075 5.5575 10.7625 5.25 10.7625C4.9425 10.7625 4.6875 10.5075 4.6875 10.2V7.8C4.6875 7.4925 4.9425 7.2375 5.25 7.2375C5.5575 7.2375 5.8125 7.4925 5.8125 7.8V10.2ZM9.5625 11.505C9.5625 11.8125 9.3075 12.0675 9 12.0675C8.6925 12.0675 8.4375 11.8125 8.4375 11.505V6.495C8.4375 6.1875 8.6925 5.9325 9 5.9325C9.3075 5.9325 9.5625 6.1875 9.5625 6.495V11.505ZM13.3125 10.2C13.3125 10.5075 13.0575 10.7625 12.75 10.7625C12.4425 10.7625 12.1875 10.5075 12.1875 10.2V7.8C12.1875 7.4925 12.4425 7.2375 12.75 7.2375C13.0575 7.2375 13.3125 7.4925 13.3125 7.8V10.2Z" fill="#F4511E" fill-opacity="0.87"/>
</svg>
