<svg width="18" height="18" viewBox="0 0 18 18" fill="none" xmlns="http://www.w3.org/2000/svg">
<path d="M4.74805 13.0379C4.74805 13.4492 5.08379 13.785 5.49688 13.785H6.35293V15.9014C6.35293 16.4375 6.78359 16.8752 7.3127 16.8752C7.84355 16.8752 8.27246 16.4393 8.27246 15.9014V13.7832H9.7666V15.8996C9.7666 16.4358 10.1973 16.8735 10.7264 16.8735C11.2572 16.8735 11.6861 16.4375 11.6861 15.8996V13.7832H12.5422C12.9553 13.7832 13.291 13.4475 13.291 13.0361V6.08927H4.74805V13.0379V13.0379ZM11.0252 2.48928L11.8145 1.3467C11.8602 1.2799 11.8496 1.19025 11.7881 1.14631C11.7266 1.10412 11.6387 1.12521 11.593 1.19201L10.7738 2.38029C10.2342 2.1676 9.63301 2.04982 9.00195 2.04982C8.3709 2.04982 7.76973 2.1676 7.23008 2.38029L6.41094 1.19377C6.36523 1.12697 6.27734 1.10412 6.21582 1.14806C6.1543 1.19025 6.14375 1.27814 6.18945 1.34845L6.97871 2.49103C5.72363 3.07463 4.84473 4.18029 4.73223 5.47228H13.2752C13.1592 4.17853 12.2785 3.07287 11.0252 2.48928V2.48928ZM7.19844 4.29103C7.10492 4.29103 7.0135 4.2633 6.93574 4.21134C6.85798 4.15939 6.79737 4.08554 6.76158 3.99913C6.72579 3.91273 6.71643 3.81766 6.73467 3.72593C6.75292 3.63421 6.79795 3.54995 6.86408 3.48382C6.93021 3.4177 7.01446 3.37266 7.10619 3.35442C7.19791 3.33617 7.29299 3.34553 7.37939 3.38132C7.46579 3.41711 7.53964 3.47772 7.5916 3.55548C7.64356 3.63324 7.67129 3.72466 7.67129 3.81818C7.67096 3.94349 7.62104 4.06357 7.53244 4.15218C7.44383 4.24079 7.32375 4.29071 7.19844 4.29103V4.29103ZM10.8617 4.29103C10.7682 4.29103 10.6768 4.2633 10.599 4.21134C10.5213 4.15939 10.4607 4.08554 10.4249 3.99913C10.3891 3.91273 10.3797 3.81766 10.398 3.72593C10.4162 3.63421 10.4612 3.54995 10.5274 3.48382C10.5935 3.4177 10.6777 3.37266 10.7695 3.35442C10.8612 3.33617 10.9563 3.34553 11.0427 3.38132C11.1291 3.41711 11.2029 3.47772 11.2549 3.55548C11.3068 3.63324 11.3346 3.72466 11.3346 3.81818C11.3342 3.94349 11.2843 4.06357 11.1957 4.15218C11.1071 4.24079 10.987 4.29071 10.8617 4.29103ZM14.7887 6.06115C14.2578 6.06115 13.8289 6.49709 13.8289 7.03498V10.8389C13.8289 11.375 14.2596 11.8127 14.7887 11.8127C15.3195 11.8127 15.7484 11.3768 15.7484 10.8389V7.03322C15.7502 6.49533 15.3213 6.06115 14.7887 6.06115ZM3.21172 6.06115C2.68086 6.06115 2.25195 6.49709 2.25195 7.03498V10.8389C2.25195 11.375 2.68262 11.8127 3.21172 11.8127C3.74258 11.8127 4.17148 11.3768 4.17148 10.8389V7.03322C4.17148 6.49533 3.74082 6.06115 3.21172 6.06115Z" fill="#78C257"/>
</svg>
