<svg width="18" height="18" viewBox="0 0 18 18" fill="none" xmlns="http://www.w3.org/2000/svg">
<path d="M13.1876 8.66254C13.1811 7.47447 13.7185 6.57776 14.8062 5.91736C14.1976 5.04654 13.2782 4.56743 12.0643 4.47355C10.915 4.38291 9.65899 5.14366 9.1993 5.14366C8.71372 5.14366 7.60011 4.50593 6.72606 4.50593C4.91968 4.53506 3 5.94649 3 8.81792C3 9.66608 3.15539 10.5423 3.46616 11.4466C3.88053 12.6346 5.37613 15.5481 6.93648 15.4996C7.75226 15.4802 8.32849 14.9201 9.3903 14.9201C10.4197 14.9201 10.9539 15.4996 11.8635 15.4996C13.4368 15.4769 14.79 12.8289 15.185 11.6376C13.0743 10.6437 13.1876 8.72404 13.1876 8.66254V8.66254ZM11.3553 3.347C12.2391 2.29813 12.1581 1.34315 12.1322 1C11.3521 1.04532 10.4489 1.53091 9.93416 2.12979C9.36764 2.77077 9.03421 3.56389 9.10542 4.45737C9.95034 4.52211 10.7208 4.08832 11.3553 3.347V3.347Z" fill="#A3AAAE"/>
</svg>
