<svg xmlns="http://www.w3.org/2000/svg" xmlns:xlink="http://www.w3.org/1999/xlink" version="1.1" width="256" height="256" viewBox="0 0 256 256" xml:space="preserve">
<desc>Created with Fabric.js 1.7.22</desc>
<defs>
</defs>
<g transform="translate(128 128) scale(0.72 0.72)" style="">
	<g style="stroke: none; stroke-width: 0; stroke-dasharray: none; stroke-linecap: butt; stroke-linejoin: miter; stroke-miterlimit: 10; fill: rgb(244,81,30); fill-rule: nonzero; opacity: 1;" transform="translate(-175.05 -175.05) scale(3.89 3.89)" >
	<circle cx="45" cy="45" r="45" style="stroke: none; stroke-width: 1; stroke-dasharray: none; stroke-linecap: butt; stroke-linejoin: miter; stroke-miterlimit: 10; fill: rgb(244,81,30); fill-rule: nonzero; opacity: 1;" transform="  matrix(1 0 0 1 0 0) "/>
</g>
	<g style="stroke: none; stroke-width: 0; stroke-dasharray: none; stroke-linecap: butt; stroke-linejoin: miter; stroke-miterlimit: 10; fill: none; fill-rule: nonzero; opacity: 1;" transform="translate(-130.05 -130.05) scale(2.89 2.89)" >
	<path d="M 18.109 60.987 c -0.552 0 -1 -0.447 -1 -1 V 14.443 H 1 c -0.552 0 -1 -0.448 -1 -1 c 0 -5.268 4.286 -9.554 9.554 -9.554 c 5.269 0 9.555 4.286 9.555 9.554 v 46.544 C 19.109 60.54 18.661 60.987 18.109 60.987 z M 2.066 12.443 h 14.977 c -0.491 -3.694 -3.662 -6.554 -7.489 -6.554 S 2.557 8.749 2.066 12.443 z" style="stroke: none; stroke-width: 1; stroke-dasharray: none; stroke-linecap: butt; stroke-linejoin: miter; stroke-miterlimit: 10; fill: rgb(255,252,252); fill-rule: nonzero; opacity: 1;" transform=" matrix(1 0 0 1 0 0) " stroke-linecap="round" />
	<path d="M 71.892 60.987 c -0.553 0 -1 -0.447 -1 -1 V 13.443 c 0 -4.166 -3.389 -7.554 -7.555 -7.554 c -0.553 0 -1 -0.448 -1 -1 s 0.447 -1 1 -1 c 5.269 0 9.555 4.286 9.555 9.554 v 46.544 C 72.892 60.54 72.444 60.987 71.892 60.987 z" style="stroke: none; stroke-width: 1; stroke-dasharray: none; stroke-linecap: butt; stroke-linejoin: miter; stroke-miterlimit: 10; fill: rgb(255,252,252); fill-rule: nonzero; opacity: 1;" transform=" matrix(1 0 0 1 0 0) " stroke-linecap="round" />
	<path d="M 63.337 5.889 H 9.554 c -0.552 0 -1 -0.448 -1 -1 s 0.448 -1 1 -1 h 53.783 c 0.553 0 1 0.448 1 1 S 63.89 5.889 63.337 5.889 z" style="stroke: none; stroke-width: 1; stroke-dasharray: none; stroke-linecap: butt; stroke-linejoin: miter; stroke-miterlimit: 10; fill: rgb(255,252,252); fill-rule: nonzero; opacity: 1;" transform=" matrix(1 0 0 1 0 0) " stroke-linecap="round" />
	<path d="M 80.445 86.111 c -0.553 0 -1 -0.447 -1 -1 s 0.447 -1 1 -1 c 3.827 0 6.998 -2.86 7.489 -6.555 H 71.892 c -0.553 0 -1 -0.447 -1 -1 s 0.447 -1 1 -1 H 89 c 0.553 0 1 0.447 1 1 C 90 81.825 85.714 86.111 80.445 86.111 z" style="stroke: none; stroke-width: 1; stroke-dasharray: none; stroke-linecap: butt; stroke-linejoin: miter; stroke-miterlimit: 10; fill: rgb(255,252,252); fill-rule: nonzero; opacity: 1;" transform=" matrix(1 0 0 1 0 0) " stroke-linecap="round" />
	<path d="M 71.892 77.557 c -0.553 0 -1 -0.447 -1 -1 V 59.987 c 0 -0.553 0.447 -1 1 -1 s 1 0.447 1 1 v 16.569 C 72.892 77.109 72.444 77.557 71.892 77.557 z" style="stroke: none; stroke-width: 1; stroke-dasharray: none; stroke-linecap: butt; stroke-linejoin: miter; stroke-miterlimit: 10; fill: rgb(255,252,252); fill-rule: nonzero; opacity: 1;" transform=" matrix(1 0 0 1 0 0) " stroke-linecap="round" />
	<path d="M 26.663 86.111 c -5.268 0 -9.554 -4.286 -9.554 -9.555 V 59.987 c 0 -0.553 0.448 -1 1 -1 s 1 0.447 1 1 v 16.569 c 0 4.166 3.389 7.555 7.554 7.555 c 0.552 0 1 0.447 1 1 S 27.215 86.111 26.663 86.111 z" style="stroke: none; stroke-width: 1; stroke-dasharray: none; stroke-linecap: butt; stroke-linejoin: miter; stroke-miterlimit: 10; fill: rgb(255,252,252); fill-rule: nonzero; opacity: 1;" transform=" matrix(1 0 0 1 0 0) " stroke-linecap="round" />
	<path d="M 80.445 86.111 H 26.663 c -0.552 0 -1 -0.447 -1 -1 s 0.448 -1 1 -1 h 53.782 c 0.553 0 1 0.447 1 1 S 80.998 86.111 80.445 86.111 z" style="stroke: none; stroke-width: 1; stroke-dasharray: none; stroke-linecap: butt; stroke-linejoin: miter; stroke-miterlimit: 10; fill: rgb(255,252,252); fill-rule: nonzero; opacity: 1;" transform=" matrix(1 0 0 1 0 0) " stroke-linecap="round" />
	<path d="M 26.663 86.111 c -0.552 0 -1 -0.447 -1 -1 s 0.448 -1 1 -1 c 4.166 0 7.554 -3.389 7.554 -7.555 c 0 -0.553 0.448 -1 1 -1 h 36.674 c 0.553 0 1 0.447 1 1 s -0.447 1 -1 1 H 36.166 C 35.664 82.357 31.594 86.111 26.663 86.111 z" style="stroke: none; stroke-width: 1; stroke-dasharray: none; stroke-linecap: butt; stroke-linejoin: miter; stroke-miterlimit: 10; fill: rgb(255,252,252); fill-rule: nonzero; opacity: 1;" transform=" matrix(1 0 0 1 0 0) " stroke-linecap="round" />
	<path d="M 61.196 44.957 H 29.547 c -0.552 0 -1 -0.448 -1 -1 s 0.448 -1 1 -1 h 31.649 c 0.553 0 1 0.448 1 1 S 61.749 44.957 61.196 44.957 z" style="stroke: none; stroke-width: 1; stroke-dasharray: none; stroke-linecap: butt; stroke-linejoin: miter; stroke-miterlimit: 10; fill: rgb(255,252,252); fill-rule: nonzero; opacity: 1;" transform=" matrix(1 0 0 1 0 0) " stroke-linecap="round" />
	<path d="M 49.065 28.397 c -0.553 0 -1 -0.448 -1 -1 c 0 -0.574 -0.467 -1.041 -1.041 -1.041 c -0.553 0 -1 -0.448 -1 -1 s 0.447 -1 1 -1 c 1.677 0 3.041 1.364 3.041 3.041 C 50.065 27.949 49.618 28.397 49.065 28.397 z" style="stroke: none; stroke-width: 1; stroke-dasharray: none; stroke-linecap: butt; stroke-linejoin: miter; stroke-miterlimit: 10; fill: rgb(255,252,252); fill-rule: nonzero; opacity: 1;" transform=" matrix(1 0 0 1 0 0) " stroke-linecap="round" />
	<path d="M 45 19.133 c -0.552 0 -1 -0.448 -1 -1 v -2.528 c 0 -0.552 0.448 -1 1 -1 s 1 0.448 1 1 v 2.528 C 46 18.685 45.552 19.133 45 19.133 z" style="stroke: none; stroke-width: 1; stroke-dasharray: none; stroke-linecap: butt; stroke-linejoin: miter; stroke-miterlimit: 10; fill: rgb(255,252,252); fill-rule: nonzero; opacity: 1;" transform=" matrix(1 0 0 1 0 0) " stroke-linecap="round" />
	<path d="M 47.024 26.356 h -4.049 c -1.677 0 -3.041 -1.364 -3.041 -3.041 v -3.142 c 0 -1.677 1.364 -3.041 3.041 -3.041 h 4.049 c 1.677 0 3.041 1.364 3.041 3.041 c 0 0.552 -0.447 1 -1 1 s -1 -0.448 -1 -1 c 0 -0.574 -0.467 -1.041 -1.041 -1.041 h -4.049 c -0.574 0 -1.041 0.467 -1.041 1.041 v 3.142 c 0 0.574 0.467 1.041 1.041 1.041 h 4.049 c 0.553 0 1 0.448 1 1 S 47.577 26.356 47.024 26.356 z" style="stroke: none; stroke-width: 1; stroke-dasharray: none; stroke-linecap: butt; stroke-linejoin: miter; stroke-miterlimit: 10; fill: rgb(255,252,252); fill-rule: nonzero; opacity: 1;" transform=" matrix(1 0 0 1 0 0) " stroke-linecap="round" />
	<path d="M 45 36.107 c -0.552 0 -1 -0.448 -1 -1 V 32.58 c 0 -0.552 0.448 -1 1 -1 s 1 0.448 1 1 v 2.528 C 46 35.66 45.552 36.107 45 36.107 z" style="stroke: none; stroke-width: 1; stroke-dasharray: none; stroke-linecap: butt; stroke-linejoin: miter; stroke-miterlimit: 10; fill: rgb(255,252,252); fill-rule: nonzero; opacity: 1;" transform=" matrix(1 0 0 1 0 0) " stroke-linecap="round" />
	<path d="M 47.024 33.58 h -4.049 c -1.677 0 -3.041 -1.364 -3.041 -3.041 c 0 -0.552 0.448 -1 1 -1 s 1 0.448 1 1 c 0 0.574 0.467 1.041 1.041 1.041 h 4.049 c 0.574 0 1.041 -0.467 1.041 -1.041 v -3.142 c 0 -0.552 0.447 -1 1 -1 s 1 0.448 1 1 v 3.142 C 50.065 32.215 48.701 33.58 47.024 33.58 z" style="stroke: none; stroke-width: 1; stroke-dasharray: none; stroke-linecap: butt; stroke-linejoin: miter; stroke-miterlimit: 10; fill: rgb(255,252,252); fill-rule: nonzero; opacity: 1;" transform=" matrix(1 0 0 1 0 0) " stroke-linecap="round" />
	<path d="M 61.196 54.957 H 29.547 c -0.552 0 -1 -0.447 -1 -1 s 0.448 -1 1 -1 h 31.649 c 0.553 0 1 0.447 1 1 S 61.749 54.957 61.196 54.957 z" style="stroke: none; stroke-width: 1; stroke-dasharray: none; stroke-linecap: butt; stroke-linejoin: miter; stroke-miterlimit: 10; fill: rgb(255,252,252); fill-rule: nonzero; opacity: 1;" transform=" matrix(1 0 0 1 0 0) " stroke-linecap="round" />
	<path d="M 61.196 64.957 H 49.547 c -0.553 0 -1 -0.447 -1 -1 s 0.447 -1 1 -1 h 11.649 c 0.553 0 1 0.447 1 1 S 61.749 64.957 61.196 64.957 z" style="stroke: none; stroke-width: 1; stroke-dasharray: none; stroke-linecap: butt; stroke-linejoin: miter; stroke-miterlimit: 10; fill: rgb(255,252,252); fill-rule: nonzero; opacity: 1;" transform=" matrix(1 0 0 1 0 0) " stroke-linecap="round" />
</g>
</g>
</svg>