<svg width="18" height="18" viewBox="0 0 18 18" fill="none" xmlns="http://www.w3.org/2000/svg">
<path d="M9.00232 2.00124C9.00232 2.00124 13.1288 1.81672 15.3166 5.94969H8.6512C8.6512 5.94969 7.3933 5.90929 6.31877 7.42987C6.01011 8.06809 5.67832 8.72553 6.05065 10.0212C5.51429 9.11574 3.20312 5.10582 3.20312 5.10582C3.20312 5.10582 4.8333 2.16463 9.00227 2.00124H9.00232Z" fill="#EF3F36"/>
<path d="M15.1028 12.4934C15.1028 12.4934 13.1987 16.1477 8.51465 15.967C9.09341 14.9693 11.8483 10.2155 11.8483 10.2155C11.8483 10.2155 12.5139 9.15051 11.7287 7.46273C11.3293 6.87643 10.9222 6.26321 9.61042 5.93637C10.6657 5.92682 15.3054 5.93637 15.3054 5.93637C15.3054 5.93637 17.0436 8.81413 15.1028 12.4934Z" fill="#FCD900"/>
<path d="M2.93122 12.5222C2.93122 12.5222 0.706832 9.05238 3.20707 5.1001C3.78391 6.0978 6.53879 10.8517 6.53879 10.8517C6.53879 10.8517 7.13301 11.959 8.99081 12.1242C9.69887 12.0724 10.4358 12.0281 11.3773 11.0612C10.8583 11.9763 8.52968 15.9747 8.52968 15.9747C8.52968 15.9747 5.15746 16.0362 2.93116 12.5222H2.93122Z" fill="#61BC5B"/>
<path d="M8.5127 16.0016L9.45027 12.1032C9.45027 12.1032 10.4805 12.0224 11.3448 11.0786C10.8084 12.0187 8.5127 16.0016 8.5127 16.0016V16.0016Z" fill="#5AB055"/>
<path d="M5.86182 9.04481C5.86182 7.32631 7.26051 5.93262 8.98519 5.93262C10.7099 5.93262 12.1086 7.32631 12.1086 9.04481C12.1086 10.7634 10.7099 12.157 8.98519 12.157C7.26051 12.1551 5.86182 10.7634 5.86182 9.04481V9.04481Z" fill="white"/>
<path d="M6.38477 9.04489C6.38477 7.61471 7.54811 6.45361 8.98538 6.45361C10.4207 6.45361 11.5859 7.6128 11.5859 9.04489C11.5859 10.4751 10.4227 11.6362 8.98538 11.6362C7.55003 11.6362 6.38477 10.4751 6.38477 9.04489V9.04489Z" fill="url(#paint0_linear)"/>
<path d="M15.3034 5.93812L11.443 7.06653C11.443 7.06653 10.8604 6.2149 9.6084 5.93812C10.6945 5.93233 15.3034 5.93812 15.3034 5.93812V5.93812Z" fill="#EACA05"/>
<path d="M5.97543 9.87912C5.43326 8.94293 3.20312 5.10596 3.20312 5.10596L6.06221 7.92408C6.06221 7.92408 5.76894 8.52579 5.87895 9.38698L5.97537 9.87912H5.97543Z" fill="#DF3A32"/>
<defs>
<linearGradient id="paint0_linear" x1="8.98525" y1="6.4902" x2="8.98525" y2="11.4802" gradientUnits="userSpaceOnUse">
<stop stop-color="#86BBE5"/>
<stop offset="1" stop-color="#1072BA"/>
</linearGradient>
</defs>
</svg>
