<svg width="32" height="32" viewBox="0 0 32 32" fill="none" xmlns="http://www.w3.org/2000/svg">
<path fill-rule="evenodd" clip-rule="evenodd" d="M12 30.3333H20C27.24 30.3333 30.3334 27.24 30.3334 20V12C30.3334 4.75999 27.24 1.66666 20 1.66666H12C4.76002 1.66666 1.66669 4.75999 1.66669 12V20C1.66669 27.24 4.76002 30.3333 12 30.3333ZM3.66669 12C3.66669 5.85332 5.85335 3.66666 12 3.66666H20C26.1467 3.66666 28.3334 5.85332 28.3334 12V20C28.3334 26.1467 26.1467 28.3333 20 28.3333H12C5.85335 28.3333 3.66669 26.1467 3.66669 20V12ZM12.2266 20.7734C11.9733 20.7734 11.7199 20.6801 11.5199 20.4801C11.1333 20.0934 11.1333 19.4534 11.5199 19.0667L14.5866 16.0001L11.5199 12.9334C11.1333 12.5467 11.1333 11.9067 11.5199 11.5201C11.9066 11.1334 12.5466 11.1334 12.9333 11.5201L15.9999 14.5867L19.0666 11.5201C19.4533 11.1334 20.0933 11.1334 20.4799 11.5201C20.8666 11.9067 20.8666 12.5467 20.4799 12.9334L17.4133 16.0001L20.4799 19.0667C20.8666 19.4534 20.8666 20.0934 20.4799 20.4801C20.2799 20.6801 20.0266 20.7734 19.7733 20.7734C19.5199 20.7734 19.2666 20.6801 19.0666 20.4801L15.9999 17.4134L12.9333 20.4801C12.7466 20.6801 12.4799 20.7734 12.2266 20.7734Z" fill="black" fill-opacity="0.6"/>
</svg>
