<svg width="18" height="18" viewBox="0 0 18 18" fill="none" xmlns="http://www.w3.org/2000/svg">
<path d="M12.1425 1.5H5.8575C3.1275 1.5 1.5 3.1275 1.5 5.8575V12.1425C1.5 14.25 2.4675 15.6975 4.17 16.245C4.665 16.4175 5.235 16.5 5.8575 16.5H12.1425C12.765 16.5 13.335 16.4175 13.83 16.245C15.5325 15.6975 16.5 14.25 16.5 12.1425V5.8575C16.5 3.1275 14.8725 1.5 12.1425 1.5ZM15.375 12.1425C15.375 13.7475 14.745 14.76 13.4775 15.18C12.75 13.7475 11.025 12.7275 9 12.7275C6.975 12.7275 5.2575 13.74 4.5225 15.18H4.515C3.2625 14.775 2.625 13.755 2.625 12.15V5.8575C2.625 3.7425 3.7425 2.625 5.8575 2.625H12.1425C14.2575 2.625 15.375 3.7425 15.375 5.8575V12.1425Z" fill="black" fill-opacity="0.87"/>
<path d="M8.99994 6C7.51494 6 6.31494 7.2 6.31494 8.685C6.31494 10.17 7.51494 11.3775 8.99994 11.3775C10.4849 11.3775 11.6849 10.17 11.6849 8.685C11.6849 7.2 10.4849 6 8.99994 6Z" fill="black" fill-opacity="0.87"/>
</svg>
