<svg width="18" height="18" viewBox="0 0 18 18" fill="none" xmlns="http://www.w3.org/2000/svg">
<path fill-rule="evenodd" clip-rule="evenodd" d="M6.75 0.9375C4.81952 0.9375 3.32185 1.32015 2.321 2.321C1.32015 3.32185 0.9375 4.81952 0.9375 6.75V11.25C0.9375 12.713 1.15611 13.9231 1.69494 14.8596C2.24562 15.8167 3.09706 16.4302 4.23262 16.7536C4.23424 16.7541 4.23586 16.7546 4.23749 16.7551C4.93499 16.9651 5.75999 17.0626 6.74999 17.0626H11.25C12.24 17.0626 13.065 16.9651 13.7625 16.7551C13.7651 16.7543 13.7676 16.7536 13.7702 16.7528C14.9043 16.4292 15.7548 15.8159 16.3051 14.8596C16.8439 13.9231 17.0625 12.713 17.0625 11.25V6.75C17.0625 4.81952 16.6798 3.32185 15.679 2.321C14.6781 1.32015 13.1805 0.9375 11.25 0.9375H6.75ZM11.5202 13.9832C12.2465 14.4415 12.7581 15.087 12.9589 15.7953C12.4641 15.8926 11.902 15.9376 11.25 15.9376H6.74999C6.09799 15.9376 5.53586 15.8926 5.04113 15.7953C5.24211 15.0861 5.75475 14.4399 6.48252 13.9814C7.17764 13.5479 8.05522 13.29 8.99999 13.29C9.94602 13.29 10.8247 13.5486 11.5202 13.9832ZM10.2982 12.303C12.1004 12.6924 13.5831 13.875 14.0362 15.4616C14.6187 15.1953 15.0351 14.811 15.3299 14.2985C15.7286 13.6057 15.9375 12.622 15.9375 11.25V6.75C15.9375 4.93048 15.5702 3.80315 14.8835 3.1165C14.1969 2.42985 13.0695 2.0625 11.25 2.0625H6.75C4.93048 2.0625 3.80315 2.42985 3.1165 3.1165C2.42985 3.80315 2.0625 4.93048 2.0625 6.75V11.25C2.0625 12.622 2.27139 13.6057 2.67006 14.2985C2.96492 14.811 3.38133 15.1953 3.96379 15.4616C4.52211 13.5066 6.6437 12.165 9 12.165C9.11294 12.165 9.22534 12.1681 9.33706 12.1741C9.66622 12.192 9.98761 12.2357 10.2982 12.303ZM6.8775 7.93501C6.8775 6.76067 7.82566 5.8125 9 5.8125C10.1743 5.8125 11.1225 6.76067 11.1225 7.93501C11.1225 9.11139 10.1723 10.065 9 10.065C7.82769 10.065 6.8775 9.11139 6.8775 7.93501ZM9 4.6875C7.20434 4.6875 5.7525 6.13936 5.7525 7.93501C5.7525 9.72863 7.20231 11.19 9 11.19C10.7977 11.19 12.2475 9.72863 12.2475 7.93501C12.2475 6.13936 10.7957 4.6875 9 4.6875Z" fill="black" fill-opacity="0.87"/>
<path d="M8.99994 11.19C7.20744 11.19 5.75244 9.72751 5.75244 7.93501C5.75244 6.14251 7.20744 4.6875 8.99994 4.6875C10.7924 4.6875 12.2474 6.14251 12.2474 7.93501C12.2474 9.72751 10.7924 11.19 8.99994 11.19ZM8.99994 5.8125C7.82994 5.8125 6.87744 6.76501 6.87744 7.93501C6.87744 9.11251 7.82994 10.065 8.99994 10.065C10.1699 10.065 11.1224 9.11251 11.1224 7.93501C11.1224 6.76501 10.1699 5.8125 8.99994 5.8125Z" fill="black" fill-opacity="0.87"/>
</svg>
