<svg width="18" height="18" viewBox="0 0 18 18" fill="none" xmlns="http://www.w3.org/2000/svg">
<path d="M12.1425 1.5H5.8575C3.1275 1.5 1.5 3.1275 1.5 5.8575V12.135C1.5 14.8725 3.1275 16.5 5.8575 16.5H12.135C14.865 16.5 16.4925 14.8725 16.4925 12.1425V5.8575C16.5 3.1275 14.8725 1.5 12.1425 1.5ZM5.7225 13.6125C5.7225 13.92 5.4675 14.175 5.16 14.175C4.8525 14.175 4.5975 13.92 4.5975 13.6125V12.06C4.5975 11.7525 4.8525 11.4975 5.16 11.4975C5.4675 11.4975 5.7225 11.7525 5.7225 12.06V13.6125ZM9.5625 13.6125C9.5625 13.92 9.3075 14.175 9 14.175C8.6925 14.175 8.4375 13.92 8.4375 13.6125V10.5C8.4375 10.1925 8.6925 9.9375 9 9.9375C9.3075 9.9375 9.5625 10.1925 9.5625 10.5V13.6125ZM13.4025 13.6125C13.4025 13.92 13.1475 14.175 12.84 14.175C12.5325 14.175 12.2775 13.92 12.2775 13.6125V8.9475C12.2775 8.64 12.5325 8.385 12.84 8.385C13.1475 8.385 13.4025 8.64 13.4025 8.9475V13.6125ZM13.4025 6.5775C13.4025 6.885 13.1475 7.14 12.84 7.14C12.5325 7.14 12.2775 6.885 12.2775 6.5775V5.85C10.365 7.815 7.9725 9.2025 5.295 9.87C5.25 9.885 5.205 9.885 5.16 9.885C4.905 9.885 4.68 9.7125 4.6125 9.4575C4.5375 9.1575 4.7175 8.85 5.025 8.775C7.5525 8.145 9.8025 6.8175 11.5875 4.9425H10.65C10.3425 4.9425 10.0875 4.6875 10.0875 4.38C10.0875 4.0725 10.3425 3.8175 10.65 3.8175H12.8475C12.8775 3.8175 12.9 3.8325 12.93 3.8325C12.9675 3.84 13.005 3.84 13.0425 3.855C13.08 3.87 13.11 3.8925 13.1475 3.915C13.17 3.93 13.1925 3.9375 13.215 3.9525C13.2225 3.96 13.2225 3.9675 13.23 3.9675C13.26 3.9975 13.2825 4.0275 13.305 4.0575C13.3275 4.0875 13.35 4.11 13.3575 4.14C13.3725 4.17 13.3725 4.2 13.38 4.2375C13.3875 4.275 13.4025 4.3125 13.4025 4.3575C13.4025 4.365 13.41 4.3725 13.41 4.38V6.5775H13.4025Z" fill="#F4511E" fill-opacity="0.87"/>
</svg>
