<svg width="18" height="18" viewBox="0 0 18 18" fill="none" xmlns="http://www.w3.org/2000/svg">
<path d="M5.15991 14.1751C4.85241 14.1751 4.59741 13.9201 4.59741 13.6126V12.0601C4.59741 11.7526 4.85241 11.4976 5.15991 11.4976C5.46741 11.4976 5.72241 11.7526 5.72241 12.0601V13.6126C5.72241 13.9276 5.46741 14.1751 5.15991 14.1751Z" fill="black" fill-opacity="0.87"/>
<path d="M9 14.175C8.6925 14.175 8.4375 13.92 8.4375 13.6125V10.5C8.4375 10.1925 8.6925 9.9375 9 9.9375C9.3075 9.9375 9.5625 10.1925 9.5625 10.5V13.6125C9.5625 13.9275 9.3075 14.175 9 14.175Z" fill="black" fill-opacity="0.87"/>
<path d="M12.8401 14.175C12.5326 14.175 12.2776 13.92 12.2776 13.6125V8.94751C12.2776 8.64001 12.5326 8.38501 12.8401 8.38501C13.1476 8.38501 13.4026 8.64001 13.4026 8.94751V13.6125C13.4026 13.9275 13.1551 14.175 12.8401 14.175Z" fill="black" fill-opacity="0.87"/>
<path fill-rule="evenodd" clip-rule="evenodd" d="M12.2776 6.57745C12.2776 6.88495 12.5326 7.13995 12.8401 7.13995C13.1551 7.13995 13.4026 6.89245 13.4026 6.58495V4.38745C13.4026 4.34569 13.3979 4.30489 13.389 4.26557C13.3636 4.15062 13.3024 4.04282 13.2074 3.96006C13.1254 3.89087 13.0303 3.84882 12.9325 3.83272C12.9024 3.82761 12.8715 3.82495 12.8401 3.82495H10.6426C10.3351 3.82495 10.0801 4.07995 10.0801 4.38745C10.0801 4.69495 10.3351 4.94995 10.6426 4.94995H11.5921C9.8074 6.82328 7.5548 8.1426 5.02493 8.77506C4.71743 8.85006 4.53743 9.15756 4.61243 9.45756C4.67993 9.71256 4.90493 9.88506 5.15993 9.88506C5.20493 9.88506 5.24993 9.88506 5.29493 9.87006C7.96962 9.20475 10.3673 7.82887 12.2776 5.86654V6.57745Z" fill="black" fill-opacity="0.87"/>
<path d="M11.25 17.0625H6.75C2.6775 17.0625 0.9375 15.3225 0.9375 11.25V6.75C0.9375 2.6775 2.6775 0.9375 6.75 0.9375H11.25C15.3225 0.9375 17.0625 2.6775 17.0625 6.75V11.25C17.0625 15.3225 15.3225 17.0625 11.25 17.0625ZM6.75 2.0625C3.2925 2.0625 2.0625 3.2925 2.0625 6.75V11.25C2.0625 14.7075 3.2925 15.9375 6.75 15.9375H11.25C14.7075 15.9375 15.9375 14.7075 15.9375 11.25V6.75C15.9375 3.2925 14.7075 2.0625 11.25 2.0625H6.75Z" fill="black" fill-opacity="0.87"/>
</svg>
