<svg width="32" height="32" viewBox="0 0 32 32" fill="none" xmlns="http://www.w3.org/2000/svg">
<path fill-rule="evenodd" clip-rule="evenodd" d="M20 30.3333H12C4.75999 30.3333 1.66666 27.24 1.66666 20V12C1.66666 4.75999 4.75999 1.66666 12 1.66666H18.6667C18.8987 1.66666 19.1139 1.74831 19.2847 1.8841C19.3154 1.90761 19.345 1.93292 19.3733 1.95997L30.04 12.6266C30.1159 12.7025 30.178 12.7901 30.2251 12.885C30.2942 13.0203 30.3333 13.1728 30.3333 13.3333V20C30.3333 27.24 27.24 30.3333 20 30.3333ZM28.3333 14.3333V20C28.3333 26.1467 26.1467 28.3333 20 28.3333H12C5.85332 28.3333 3.66666 26.1467 3.66666 20V12C3.66666 5.85332 5.85332 3.66666 12 3.66666H17.6667V7.99997C17.6667 12.56 19.44 14.3333 24 14.3333H28.3333ZM11.9455 23.6651C11.9634 23.6661 11.9816 23.6667 12 23.6667C12.0119 23.6667 12.0238 23.6664 12.0357 23.666C12.2644 23.658 12.491 23.5734 12.6763 23.4024C12.6866 23.3929 12.6967 23.3832 12.7067 23.3733L15.3733 20.7067C15.76 20.32 15.76 19.68 15.3733 19.2933C14.9867 18.9067 14.3467 18.9067 13.96 19.2933L13 20.2533V14.6667C13 14.12 12.5467 13.6667 12 13.6667C11.4533 13.6667 11 14.12 11 14.6667V20.2533L10.0399 19.2932C9.65325 18.9066 9.01325 18.9066 8.62658 19.2932C8.23991 19.6799 8.23991 20.3199 8.62658 20.7066L11.245 23.325C11.3175 23.4086 11.4043 23.48 11.5028 23.5346C11.6412 23.6145 11.7926 23.657 11.9455 23.6651ZM19.6667 7.99997V5.07997L26.92 12.3333H24C20.56 12.3333 19.6667 11.44 19.6667 7.99997Z" fill="black" fill-opacity="0.87"/>
</svg>
