<svg width="32" height="32" viewBox="0 0 32 32" fill="none" xmlns="http://www.w3.org/2000/svg">
<path d="M15.1733 25.2C14.7333 25.2 14.2933 25.0934 13.8933 24.8667C13.08 24.4134 12.5867 23.5867 12.5867 22.6534V18.5467C12.5867 18.2934 12.3867 17.8 12.1867 17.5467L9.29334 14.5067C8.74668 13.96 8.33334 13 8.33334 12.2667V10.4934C8.33334 9.01337 9.45334 7.8667 10.88 7.8667H21.1067C22.5067 7.8667 23.6533 9.01337 23.6533 10.4134V12.12C23.6533 13.0534 23.12 14.08 22.5867 14.6134L19.2133 17.6C19 17.7867 18.7733 18.2534 18.7733 18.64V21.9734C18.7733 22.8134 18.2667 23.7467 17.5867 24.1467L16.5333 24.8267C16.12 25.08 15.6533 25.2 15.1733 25.2ZM10.88 9.8667C10.56 9.8667 10.3333 10.1334 10.3333 10.4934V12.2667C10.3333 12.44 10.52 12.8934 10.7333 13.1067L13.6933 16.2267C14.1467 16.8 14.5867 17.72 14.5867 18.5467V22.6534C14.5867 22.92 14.76 23.0667 14.8667 23.12C15.0133 23.2 15.2533 23.2534 15.4667 23.12L16.5333 22.4267C16.64 22.3467 16.7733 22.08 16.7733 21.9467V18.6134C16.7733 17.6667 17.24 16.6134 17.9067 16.0667L21.2133 13.1334C21.3867 12.96 21.6533 12.4267 21.6533 12.0934V10.4134C21.6533 10.12 21.4 9.8667 21.1067 9.8667H10.88V9.8667Z" fill="black" fill-opacity="0.6"/>
<path d="M20 30.3333H12C4.75999 30.3333 1.66666 27.24 1.66666 20V12C1.66666 4.75999 4.75999 1.66666 12 1.66666H20C27.24 1.66666 30.3333 4.75999 30.3333 12V20C30.3333 27.24 27.24 30.3333 20 30.3333ZM12 3.66666C5.85332 3.66666 3.66666 5.85332 3.66666 12V20C3.66666 26.1467 5.85332 28.3333 12 28.3333H20C26.1467 28.3333 28.3333 26.1467 28.3333 20V12C28.3333 5.85332 26.1467 3.66666 20 3.66666H12Z" fill="black" fill-opacity="0.6"/>
</svg>
