<svg width="18" height="18" viewBox="0 0 18 18" fill="none" xmlns="http://www.w3.org/2000/svg">
<path d="M15.8031 6.21883C15.4842 5.44946 14.8378 4.61885 14.3304 4.35648C14.7434 5.1681 14.9823 5.98217 15.0736 6.58958C15.0736 6.58958 15.0736 6.59387 15.0751 6.60183C14.2451 4.52792 12.8374 3.69151 11.6879 1.8708C11.6296 1.77895 11.5715 1.6871 11.5147 1.58883C11.4826 1.53341 11.4567 1.4832 11.434 1.43575C11.3864 1.34369 11.3496 1.24639 11.3244 1.14582C11.3246 1.14104 11.323 1.13636 11.32 1.13268C11.3169 1.12901 11.3126 1.1266 11.3079 1.12592C11.3034 1.12469 11.2986 1.12469 11.2941 1.12592C11.2929 1.12647 11.2918 1.12719 11.2908 1.12806C11.2889 1.12806 11.2871 1.1302 11.2853 1.13082L11.2883 1.12684C9.44411 2.2094 8.81848 4.21197 8.76104 5.21402C8.02409 5.26453 7.31943 5.53649 6.73903 5.99441C6.67837 5.943 6.61494 5.89497 6.54902 5.85052C6.38176 5.2637 6.37469 4.64265 6.52855 4.05216C5.77431 4.39658 5.18778 4.94001 4.76132 5.42098H4.75796C4.46683 5.05145 4.4873 3.83264 4.50379 3.57823C4.50043 3.56231 4.2869 3.68936 4.25941 3.70865C4.00251 3.89232 3.76238 4.09846 3.54182 4.32464C3.29083 4.57966 3.06153 4.85524 2.85631 5.1485C2.38415 5.81911 2.0493 6.57685 1.87112 7.37793C1.86776 7.39385 1.8647 7.41039 1.86134 7.42661C1.84759 7.49121 1.7978 7.81543 1.78894 7.88585V7.90207C1.72403 8.23708 1.6836 8.57638 1.66797 8.91729V8.95494C1.66797 13.0182 4.955 16.3125 9.0094 16.3125C12.6407 16.3125 15.6556 13.6704 16.2461 10.1998C16.2583 10.1058 16.2684 10.0109 16.2794 9.91597C16.4254 8.65399 16.2632 7.32772 15.8031 6.21883ZM7.34115 11.9782C7.37536 11.9945 7.40774 12.0125 7.44287 12.0284L7.44776 12.0315C7.41263 12.0144 7.37689 11.9966 7.34145 11.9782H7.34115ZM15.0757 6.60519V6.59815V6.60611V6.60519Z" fill="url(#paint0_linear)"/>
<path d="M15.8032 6.21879C15.4842 5.44942 14.8378 4.61882 14.3304 4.35645C14.7434 5.16807 14.9823 5.98213 15.0737 6.58955V6.60455C15.7665 8.4868 15.3889 10.4009 14.8452 11.5704C14.0039 13.3798 11.9672 15.2345 8.77882 15.1442C5.33691 15.0462 2.30252 12.4834 1.73585 9.12942C1.63259 8.60008 1.73585 8.33158 1.78778 7.90204C1.72454 8.23299 1.70041 8.32882 1.66895 8.91725V8.95491C1.66895 13.0182 4.95597 16.3125 9.01038 16.3125C12.6417 16.3125 15.6565 13.6703 16.247 10.1997C16.2593 10.1058 16.2693 10.0108 16.2803 9.91594C16.4254 8.65396 16.2632 7.32769 15.8032 6.21879V6.21879Z" fill="url(#paint1_radial)"/>
<path d="M15.8032 6.21879C15.4842 5.44942 14.8378 4.61882 14.3304 4.35645C14.7434 5.16807 14.9823 5.98213 15.0737 6.58955V6.60455C15.7665 8.4868 15.3889 10.4009 14.8452 11.5704C14.0039 13.3798 11.9672 15.2345 8.77882 15.1442C5.33691 15.0462 2.30252 12.4834 1.73585 9.12942C1.63259 8.60008 1.73585 8.33158 1.78778 7.90204C1.72454 8.23299 1.70041 8.32882 1.66895 8.91725V8.95491C1.66895 13.0182 4.95597 16.3125 9.01038 16.3125C12.6417 16.3125 15.6565 13.6703 16.247 10.1997C16.2593 10.1058 16.2693 10.0108 16.2803 9.91594C16.4254 8.65396 16.2632 7.32769 15.8032 6.21879V6.21879Z" fill="url(#paint2_radial)"/>
<path d="M12.2353 7.08353C12.2515 7.09486 12.2659 7.10618 12.2812 7.11751C12.0969 6.78964 11.8674 6.48949 11.5993 6.22598C9.31734 3.939 11.0012 1.26687 11.285 1.13093L11.288 1.12695C9.44381 2.20952 8.81817 4.21209 8.76074 5.21414C8.84628 5.20832 8.93151 5.20097 9.01857 5.20097C10.3948 5.20097 11.5935 5.95963 12.2353 7.08353Z" fill="url(#paint3_radial)"/>
<path d="M9.0232 7.54045C9.01128 7.72415 8.3661 8.35483 8.14034 8.35483C6.05265 8.35483 5.71387 9.62048 5.71387 9.62048C5.80551 10.6865 6.54662 11.5643 7.44322 12.0287C7.48416 12.0498 7.5254 12.0688 7.56542 12.0878C7.63721 12.1184 7.7093 12.149 7.78109 12.1763C8.08857 12.285 8.41056 12.3469 8.73634 12.36C12.3955 12.532 13.1048 7.97519 10.4639 6.65199C11.1399 6.53412 11.8419 6.8069 12.2339 7.08275C11.5923 5.95885 10.3933 5.2002 9.01709 5.2002C8.93002 5.2002 8.84479 5.20754 8.75926 5.21336C8.02284 5.26449 7.31886 5.53676 6.73908 5.99467C6.85119 6.08988 6.97766 6.21663 7.24374 6.47932C7.7429 6.97284 9.02045 7.48075 9.0232 7.54045V7.54045Z" fill="url(#paint4_radial)"/>
<path d="M9.02319 7.54045C9.01128 7.72415 8.36609 8.35483 8.14034 8.35483C6.05265 8.35483 5.71387 9.62048 5.71387 9.62048C5.80551 10.6865 6.54662 11.5643 7.44322 12.0287C7.48416 12.0498 7.5254 12.0688 7.56542 12.0878C7.63721 12.1184 7.7093 12.149 7.78109 12.1763C8.08857 12.285 8.41056 12.3469 8.73634 12.36C12.3955 12.532 13.1048 7.97519 10.4639 6.65199C11.1399 6.53412 11.8419 6.8069 12.2339 7.08275C11.5923 5.95885 10.3933 5.2002 9.01709 5.2002C8.93002 5.2002 8.84479 5.20754 8.75926 5.21336C8.02284 5.26449 7.31886 5.53676 6.73908 5.99467C6.85119 6.08989 6.97766 6.21663 7.24374 6.47932C7.7429 6.97284 9.02045 7.48075 9.02319 7.54045Z" fill="url(#paint5_radial)"/>
<path d="M6.39814 5.74988C6.45771 5.78846 6.50659 5.82091 6.55089 5.85061C6.38362 5.26379 6.37656 4.64274 6.53042 4.05225C5.77617 4.39667 5.18964 4.9401 4.76318 5.42107C4.7977 5.42015 5.86263 5.40086 6.39814 5.74988V5.74988Z" fill="url(#paint6_radial)"/>
<path d="M1.7359 9.12938C2.30258 12.4833 5.33697 15.0462 8.78132 15.1441C11.9697 15.2344 14.0051 13.3797 14.8477 11.5704C15.3914 10.4005 15.769 8.48675 15.0762 6.60451V6.59042C15.0762 6.59226 15.0762 6.59471 15.0777 6.60267C15.338 8.30704 14.4731 9.95814 13.1211 11.0747C13.1197 11.0778 13.1183 11.081 13.1171 11.0842C10.4823 13.2343 7.96109 12.3814 7.45062 12.0333C7.41519 12.0161 7.37945 11.9984 7.34401 11.98C5.80772 11.2452 5.17323 9.8415 5.30917 8.63861C4.01238 8.63861 3.57004 7.54196 3.57004 7.54196C3.57004 7.54196 4.73455 6.70982 6.26931 7.43358C7.69074 8.10406 9.02571 7.54226 9.02571 7.54196C9.02296 7.48226 7.74542 6.97281 7.24717 6.48082C6.98109 6.21814 6.85462 6.09139 6.74251 5.99617C6.68184 5.94476 6.61841 5.89673 6.5525 5.85228C6.50881 5.82167 6.46085 5.79105 6.39975 5.75156C5.86424 5.40254 4.79931 5.42183 4.76418 5.42274H4.76082C4.46969 5.05321 4.49016 3.83441 4.50666 3.57999C4.5033 3.56407 4.28976 3.69112 4.26227 3.71041C4.00538 3.89408 3.76524 4.10022 3.54468 4.3264C3.2937 4.58142 3.0644 4.857 2.85917 5.15026C2.38701 5.82087 2.05216 6.57861 1.87398 7.37969C1.86818 7.39378 1.60699 8.53666 1.7359 9.12938V9.12938Z" fill="url(#paint7_radial)"/>
<path d="M11.5995 6.22587C11.8675 6.48938 12.0971 6.78952 12.2813 7.11739C12.3195 7.14613 12.3562 7.17679 12.3913 7.20924C14.0556 8.74492 13.185 10.9189 13.1187 11.0751C14.4708 9.95852 15.3356 8.30742 15.0753 6.60305C14.2453 4.52792 12.8376 3.69151 11.6881 1.8708C11.6297 1.77895 11.5717 1.6871 11.5149 1.58883C11.4828 1.53341 11.4568 1.4832 11.4342 1.43575C11.3866 1.34369 11.3498 1.24639 11.3246 1.14582C11.3248 1.14104 11.3232 1.13636 11.3201 1.13268C11.3171 1.12901 11.3128 1.1266 11.3081 1.12592C11.3036 1.12469 11.2988 1.12469 11.2943 1.12592C11.2931 1.12647 11.292 1.12719 11.291 1.12806C11.2891 1.12806 11.2873 1.1302 11.2855 1.13082C11.0014 1.26675 9.31752 3.93888 11.5995 6.22587V6.22587Z" fill="url(#paint8_radial)"/>
<path d="M12.3908 7.2078C12.3557 7.17534 12.319 7.14469 12.2808 7.11595C12.2658 7.10462 12.2502 7.0933 12.235 7.08197C11.843 6.80643 11.141 6.53334 10.465 6.65121C13.1056 7.97441 12.3966 12.5312 8.73746 12.3592C8.41167 12.3461 8.08968 12.2842 7.7822 12.1755C7.71041 12.1485 7.63832 12.1188 7.56653 12.087C7.52498 12.068 7.48374 12.049 7.44434 12.0279L7.44922 12.031C7.95969 12.38 10.4809 13.233 13.1157 11.0819C13.1157 11.0819 13.1172 11.0779 13.1196 11.0724C13.185 10.919 14.0557 8.74501 12.3908 7.2078Z" fill="url(#paint9_radial)"/>
<path d="M5.71373 9.62042C5.71373 9.62042 6.05251 8.35477 8.1402 8.35477C8.36595 8.35477 9.01114 7.72348 9.02305 7.5404C9.03497 7.35732 7.68808 8.1025 6.26666 7.43202C4.73189 6.70827 3.56738 7.5404 3.56738 7.5404C3.56738 7.5404 4.00973 8.63705 5.30651 8.63705C5.17057 9.83994 5.80507 11.2424 7.34136 11.9784C7.37557 11.9947 7.40795 12.0127 7.44308 12.0286C6.54648 11.5651 5.80629 10.6865 5.71373 9.62042Z" fill="url(#paint10_radial)"/>
<path d="M15.8031 6.21883C15.4842 5.44946 14.8378 4.61885 14.3304 4.35648C14.7434 5.1681 14.9823 5.98217 15.0736 6.58958C15.0736 6.58958 15.0736 6.59387 15.0751 6.60183C14.2451 4.52792 12.8374 3.69151 11.6879 1.8708C11.6296 1.77895 11.5715 1.6871 11.5147 1.58883C11.4826 1.53341 11.4567 1.4832 11.434 1.43575C11.3864 1.34369 11.3496 1.24639 11.3244 1.14582C11.3246 1.14104 11.323 1.13636 11.32 1.13268C11.3169 1.12901 11.3126 1.1266 11.3079 1.12592C11.3034 1.12469 11.2986 1.12469 11.2941 1.12592C11.2929 1.12647 11.2918 1.12719 11.2908 1.12806C11.2889 1.12806 11.2871 1.1302 11.2853 1.13082L11.2883 1.12684C9.44411 2.2094 8.81848 4.21197 8.76104 5.21402C8.84658 5.2082 8.93181 5.20086 9.01887 5.20086C10.3951 5.20086 11.5938 5.95951 12.2356 7.08341C11.8437 6.80787 11.1417 6.53478 10.4657 6.65265C13.1063 7.97586 12.3972 12.5327 8.73813 12.3606C8.41235 12.3475 8.09036 12.2856 7.78288 12.1769C7.71109 12.15 7.63899 12.1203 7.56721 12.0885C7.52566 12.0695 7.48442 12.0505 7.44501 12.0294L7.4499 12.0324C7.41446 12.0153 7.37872 11.9975 7.34328 11.9792C7.3775 11.9954 7.40988 12.0134 7.44501 12.0294C6.54658 11.5649 5.80639 10.6863 5.71382 9.62022C5.71382 9.62022 6.05261 8.35457 8.1403 8.35457C8.36605 8.35457 9.01124 7.72328 9.02315 7.5402C9.0204 7.4805 7.74286 6.97105 7.24461 6.47906C6.97853 6.21638 6.85206 6.08963 6.73995 5.99441C6.67929 5.943 6.61585 5.89497 6.54994 5.85052C6.38268 5.2637 6.37561 4.64265 6.52947 4.05216C5.77523 4.39658 5.18869 4.94001 4.76223 5.42098H4.75887C4.46775 5.05145 4.48821 3.83264 4.50471 3.57823C4.50135 3.56231 4.28782 3.68936 4.26032 3.70865C4.00343 3.89232 3.76329 4.09846 3.54274 4.32464C3.29175 4.57966 3.06245 4.85524 2.85723 5.1485C2.38507 5.81911 2.05022 6.57685 1.87203 7.37793C1.86867 7.39385 1.86562 7.41039 1.86226 7.42661C1.84851 7.49121 1.78619 7.82002 1.77764 7.89044C1.77764 7.89595 1.77764 7.88523 1.77764 7.89044C1.72044 8.23019 1.68381 8.5731 1.66797 8.91729V8.95494C1.66797 13.0182 4.955 16.3125 9.0094 16.3125C12.6407 16.3125 15.6556 13.6704 16.2461 10.1998C16.2583 10.1058 16.2684 10.0109 16.2794 9.91597C16.4254 8.65399 16.2632 7.32772 15.8031 6.21883ZM15.0748 6.59662V6.60458V6.59662Z" fill="url(#paint11_linear)"/>
<defs>
<linearGradient id="paint0_linear" x1="14.8314" y1="3.47781" x2="2.61793" y2="15.2356" gradientUnits="userSpaceOnUse">
<stop offset="0.05" stop-color="#FFF44F"/>
<stop offset="0.11" stop-color="#FFE847"/>
<stop offset="0.22" stop-color="#FFC830"/>
<stop offset="0.37" stop-color="#FF980E"/>
<stop offset="0.4" stop-color="#FF8B16"/>
<stop offset="0.46" stop-color="#FF672A"/>
<stop offset="0.53" stop-color="#FF3647"/>
<stop offset="0.7" stop-color="#E31587"/>
</linearGradient>
<radialGradient id="paint1_radial" cx="0" cy="0" r="1" gradientUnits="userSpaceOnUse" gradientTransform="translate(14.2681 2.81066) scale(15.3051 15.3387)">
<stop offset="0.13" stop-color="#FFBD4F"/>
<stop offset="0.19" stop-color="#FFAC31"/>
<stop offset="0.25" stop-color="#FF9D17"/>
<stop offset="0.28" stop-color="#FF980E"/>
<stop offset="0.4" stop-color="#FF563B"/>
<stop offset="0.47" stop-color="#FF3750"/>
<stop offset="0.71" stop-color="#F5156C"/>
<stop offset="0.78" stop-color="#EB0878"/>
<stop offset="0.86" stop-color="#E50080"/>
</radialGradient>
<radialGradient id="paint2_radial" cx="0" cy="0" r="1" gradientUnits="userSpaceOnUse" gradientTransform="translate(8.67557 9.08135) scale(15.3051 15.3387)">
<stop offset="0.3" stop-color="#960E18"/>
<stop offset="0.35" stop-color="#B11927" stop-opacity="0.74"/>
<stop offset="0.43" stop-color="#DB293D" stop-opacity="0.34"/>
<stop offset="0.5" stop-color="#F5334B" stop-opacity="0.09"/>
<stop offset="0.53" stop-color="#FF3750" stop-opacity="0"/>
</radialGradient>
<radialGradient id="paint3_radial" cx="0" cy="0" r="1" gradientUnits="userSpaceOnUse" gradientTransform="translate(10.521 -0.670183) scale(11.0879 11.1122)">
<stop offset="0.13" stop-color="#FFF44F"/>
<stop offset="0.25" stop-color="#FFDC3E"/>
<stop offset="0.51" stop-color="#FF9D12"/>
<stop offset="0.53" stop-color="#FF980E"/>
</radialGradient>
<radialGradient id="paint4_radial" cx="0" cy="0" r="1" gradientUnits="userSpaceOnUse" gradientTransform="translate(6.98286 13.0883) scale(7.28736 7.30335)">
<stop offset="0.35" stop-color="#3A8EE6"/>
<stop offset="0.47" stop-color="#5C79F0"/>
<stop offset="0.67" stop-color="#9059FF"/>
<stop offset="1" stop-color="#C139E6"/>
</radialGradient>
<radialGradient id="paint5_radial" cx="0" cy="0" r="1" gradientUnits="userSpaceOnUse" gradientTransform="translate(8.89536 7.25869) rotate(-13.9265) scale(3.86138 4.545)">
<stop offset="0.21" stop-color="#9059FF" stop-opacity="0"/>
<stop offset="0.28" stop-color="#8C4FF3" stop-opacity="0.06"/>
<stop offset="0.75" stop-color="#7716A8" stop-opacity="0.45"/>
<stop offset="0.97" stop-color="#6E008B" stop-opacity="0.6"/>
</radialGradient>
<radialGradient id="paint6_radial" cx="0" cy="0" r="1" gradientUnits="userSpaceOnUse" gradientTransform="translate(8.48247 2.18316) scale(5.24275 5.25425)">
<stop stop-color="#FFE226"/>
<stop offset="0.12" stop-color="#FFDB27"/>
<stop offset="0.3" stop-color="#FFC82A"/>
<stop offset="0.5" stop-color="#FFA930"/>
<stop offset="0.73" stop-color="#FF7E37"/>
<stop offset="0.79" stop-color="#FF7139"/>
</radialGradient>
<radialGradient id="paint7_radial" cx="0" cy="0" r="1" gradientUnits="userSpaceOnUse" gradientTransform="translate(12.6033 -1.14951) scale(22.368 22.4171)">
<stop offset="0.11" stop-color="#FFF44F"/>
<stop offset="0.46" stop-color="#FF980E"/>
<stop offset="0.62" stop-color="#FF5634"/>
<stop offset="0.72" stop-color="#FF3647"/>
<stop offset="0.9" stop-color="#E31587"/>
</radialGradient>
<radialGradient id="paint8_radial" cx="0" cy="0" r="1" gradientUnits="userSpaceOnUse" gradientTransform="translate(10.4412 1.29978) rotate(84.2447) scale(16.3395 10.7121)">
<stop stop-color="#FFF44F"/>
<stop offset="0.06" stop-color="#FFE847"/>
<stop offset="0.17" stop-color="#FFC830"/>
<stop offset="0.3" stop-color="#FF980E"/>
<stop offset="0.36" stop-color="#FF8B16"/>
<stop offset="0.45" stop-color="#FF672A"/>
<stop offset="0.57" stop-color="#FF3647"/>
<stop offset="0.74" stop-color="#E31587"/>
</radialGradient>
<radialGradient id="paint9_radial" cx="0" cy="0" r="1" gradientUnits="userSpaceOnUse" gradientTransform="translate(8.35896 4.12909) scale(13.9644 13.995)">
<stop offset="0.14" stop-color="#FFF44F"/>
<stop offset="0.48" stop-color="#FF980E"/>
<stop offset="0.59" stop-color="#FF5634"/>
<stop offset="0.66" stop-color="#FF3647"/>
<stop offset="0.9" stop-color="#E31587"/>
</radialGradient>
<radialGradient id="paint10_radial" cx="0" cy="0" r="1" gradientUnits="userSpaceOnUse" gradientTransform="translate(12.0449 4.94848) scale(15.2841 15.3176)">
<stop offset="0.09" stop-color="#FFF44F"/>
<stop offset="0.23" stop-color="#FFE141"/>
<stop offset="0.51" stop-color="#FFAF1E"/>
<stop offset="0.63" stop-color="#FF980E"/>
</radialGradient>
<linearGradient id="paint11_linear" x1="14.6847" y1="3.41474" x2="4.29196" y2="13.785" gradientUnits="userSpaceOnUse">
<stop offset="0.17" stop-color="#FFF44F" stop-opacity="0.8"/>
<stop offset="0.27" stop-color="#FFF44F" stop-opacity="0.63"/>
<stop offset="0.49" stop-color="#FFF44F" stop-opacity="0.22"/>
<stop offset="0.6" stop-color="#FFF44F" stop-opacity="0"/>
</linearGradient>
</defs>
</svg>
