<svg width="24" height="24" viewBox="0 0 24 24" fill="none" xmlns="http://www.w3.org/2000/svg">
<path d="M6.28859 8.11L10.1786 12L6.28859 15.89C5.89859 16.28 5.89859 16.91 6.28859 17.3C6.67859 17.69 7.30859 17.69 7.69859 17.3L12.2886 12.71C12.6786 12.32 12.6786 11.69 12.2886 11.3L7.69859 6.7C7.30859 6.31 6.67859 6.31 6.28859 6.7C5.90859 7.09 5.90859 7.73 6.28859 8.11ZM16.9986 6C17.5486 6 17.9986 6.45 17.9986 7V17C17.9986 17.55 17.5486 18 16.9986 18C16.4486 18 15.9986 17.55 15.9986 17V7C15.9986 6.45 16.4486 6 16.9986 6Z" fill="black" fill-opacity="0.6"/>
</svg>
