<svg width="18" height="18" viewBox="0 0 18 18" fill="none" xmlns="http://www.w3.org/2000/svg">
<path d="M1.9351 14.2575L1.9201 14.2725C1.7176 13.83 1.5901 13.3275 1.5376 12.7725C1.5901 13.32 1.7326 13.815 1.9351 14.2575Z" fill="#F4511E" fill-opacity="0.87"/>
<path d="M6.75009 7.78509C7.73592 7.78509 8.53509 6.98592 8.53509 6.00009C8.53509 5.01426 7.73592 4.21509 6.75009 4.21509C5.76426 4.21509 4.96509 5.01426 4.96509 6.00009C4.96509 6.98592 5.76426 7.78509 6.75009 7.78509Z" fill="#F4511E" fill-opacity="0.87"/>
<path d="M12.1425 1.5H5.8575C3.1275 1.5 1.5 3.1275 1.5 5.8575V12.1425C1.5 12.96 1.6425 13.6725 1.92 14.2725C2.565 15.6975 3.945 16.5 5.8575 16.5H12.1425C14.8725 16.5 16.5 14.8725 16.5 12.1425V10.425V5.8575C16.5 3.1275 14.8725 1.5 12.1425 1.5ZM15.2775 9.375C14.6925 8.8725 13.7475 8.8725 13.1625 9.375L10.0425 12.0525C9.4575 12.555 8.5125 12.555 7.9275 12.0525L7.6725 11.8425C7.14 11.3775 6.2925 11.3325 5.6925 11.7375L2.8875 13.62C2.7225 13.2 2.625 12.7125 2.625 12.1425V5.8575C2.625 3.7425 3.7425 2.625 5.8575 2.625H12.1425C14.2575 2.625 15.375 3.7425 15.375 5.8575V9.4575L15.2775 9.375Z" fill="#F4511E" fill-opacity="0.87"/>
</svg>
