<svg width="18" height="18" viewBox="0 0 18 18" fill="none" xmlns="http://www.w3.org/2000/svg">
<path d="M6.75 8.0625C5.61 8.0625 4.6875 7.14 4.6875 6C4.6875 4.86 5.61 3.9375 6.75 3.9375C7.89 3.9375 8.8125 4.86 8.8125 6C8.8125 7.14 7.89 8.0625 6.75 8.0625ZM6.75 5.0625C6.2325 5.0625 5.8125 5.4825 5.8125 6C5.8125 6.5175 6.2325 6.9375 6.75 6.9375C7.2675 6.9375 7.6875 6.5175 7.6875 6C7.6875 5.4825 7.2675 5.0625 6.75 5.0625Z" fill="black" fill-opacity="0.87"/>
<path fill-rule="evenodd" clip-rule="evenodd" d="M6.75 17.0625H11.25C15.3225 17.0625 17.0625 15.3225 17.0625 11.25V10.5167C17.0724 10.456 17.0723 10.3943 17.0625 10.3341V6.75C17.0625 2.6775 15.3225 0.9375 11.25 0.9375H6.75C2.6775 0.9375 0.9375 2.6775 0.9375 6.75V11.25C0.9375 15.3225 2.6775 17.0625 6.75 17.0625ZM15.9375 9.19232V6.75C15.9375 3.2925 14.7075 2.0625 11.25 2.0625H6.75C3.2925 2.0625 2.0625 3.2925 2.0625 6.75V11.25C2.0625 12.072 2.13203 12.7682 2.28449 13.3518L5.39251 11.265C6.20251 10.7175 7.32001 10.785 8.05501 11.4075L8.30251 11.625C8.67751 11.9475 9.31501 11.9475 9.68251 11.625L12.8025 8.94754C13.5975 8.26504 14.85 8.26504 15.6525 8.94754L15.9375 9.19232ZM15.9375 10.6786L14.9175 9.80254C14.5425 9.48004 13.905 9.48004 13.53 9.80254L10.41 12.48C9.61501 13.1625 8.36251 13.1625 7.56001 12.48L7.31251 12.2625C6.96751 11.97 6.39751 11.94 6.01501 12.2025L2.72706 14.4101C3.41562 15.4991 4.68585 15.9375 6.75 15.9375H11.25C14.7075 15.9375 15.9375 14.7075 15.9375 11.25V10.6786Z" fill="black" fill-opacity="0.87"/>
</svg>
