<svg width="18" height="18" viewBox="0 0 18 18" fill="none" xmlns="http://www.w3.org/2000/svg">
<path fill-rule="evenodd" clip-rule="evenodd" d="M4.55774 16.841C2.08715 16.2667 0.9375 14.49 0.9375 11.25V6.75C0.9375 2.6775 2.6775 0.9375 6.75 0.9375H11.25C14.4938 0.9375 16.271 2.08988 16.843 4.56656L16.8451 4.57501C16.9876 5.21251 17.0626 5.925 17.0626 6.75V11.25C17.0626 13.3275 16.6276 14.73 15.6826 15.6825C15.6797 15.6854 15.6768 15.6882 15.6738 15.691C14.7214 16.6302 13.3211 17.0626 11.2498 17.0626H6.74979C5.92479 17.0626 5.2198 16.9951 4.5748 16.8451C4.56908 16.8438 4.56339 16.8425 4.55774 16.841ZM4.5299 15.675C2.78248 15.1574 2.0625 13.8524 2.0625 11.25V6.75C2.0625 3.2925 3.2925 2.0625 6.75 2.0625V2.07H11.2425C13.845 2.07 15.1575 2.79 15.6675 4.5375L10.1097 10.0953C10.1072 10.0977 10.1047 10.1001 10.1023 10.1026L4.5299 15.675ZM5.8874 15.9076L10.4999 11.2951L14.4448 15.2401C13.7173 15.7126 12.6898 15.9376 11.2498 15.9376H6.74979C6.44233 15.9376 6.15737 15.9301 5.8874 15.9076ZM11.2951 10.5L15.2401 14.445C15.7126 13.7175 15.9376 12.6825 15.9376 11.25V6.75C15.9376 6.4425 15.9301 6.15751 15.9076 5.88751L11.2951 10.5Z" fill="black" fill-opacity="0.87"/>
<path d="M6.8402 9.98253C6.3677 9.98253 5.89519 9.81003 5.52019 9.45753C4.32769 8.32503 3.84771 7.08004 4.13271 5.86504C4.41771 4.62004 5.5052 3.78003 6.8402 3.78003C8.1752 3.78003 9.26271 4.62004 9.54771 5.86504C9.82521 7.08754 9.3452 8.32503 8.1527 9.45753C7.7852 9.80253 7.3127 9.98253 6.8402 9.98253ZM5.2277 6.11253C4.9877 7.13253 5.6777 8.04754 6.3002 8.64004C6.6077 8.93254 7.0802 8.93254 7.3802 8.64004C7.9952 8.05504 8.68519 7.14003 8.4527 6.11253C8.2502 5.22003 7.4552 4.89753 6.8402 4.89753C6.2252 4.89753 5.4377 5.22003 5.2277 6.11253Z" fill="black" fill-opacity="0.87"/>
<path d="M6.8623 7.11743C6.4498 7.11743 6.1123 6.77993 6.1123 6.36743C6.1123 5.95493 6.4423 5.61743 6.8623 5.61743H6.86981C7.28231 5.61743 7.61981 5.95493 7.61981 6.36743C7.61981 6.77993 7.2748 7.11743 6.8623 7.11743Z" fill="black" fill-opacity="0.87"/>
</svg>
