<svg width="18" height="18" viewBox="0 0 18 18" fill="none" xmlns="http://www.w3.org/2000/svg">
<path fill-rule="evenodd" clip-rule="evenodd" d="M12.6827 11.3626C12.7952 11.4751 12.9377 11.5276 13.0802 11.5276C13.2227 11.5276 13.3652 11.4751 13.4777 11.3626L15.3977 9.44258C15.6152 9.22508 15.6152 8.86508 15.3977 8.64758L13.4777 6.72758C13.2602 6.51008 12.9002 6.51008 12.6827 6.72758C12.4652 6.94508 12.4652 7.30508 12.6827 7.52258L13.6425 8.48242H7.32031C7.01281 8.48242 6.75781 8.73742 6.75781 9.04492C6.75781 9.35242 7.01281 9.60742 7.32031 9.60742H13.6428L12.6827 10.5676C12.4652 10.7851 12.4652 11.1451 12.6827 11.3626Z" fill="black" fill-opacity="0.6"/>
<path d="M8.81982 15.5625C4.95732 15.5625 2.25732 12.8625 2.25732 9C2.25732 5.1375 4.95732 2.4375 8.81982 2.4375C9.12732 2.4375 9.38232 2.6925 9.38232 3C9.38232 3.3075 9.12732 3.5625 8.81982 3.5625C5.61732 3.5625 3.38232 5.7975 3.38232 9C3.38232 12.2025 5.61732 14.4375 8.81982 14.4375C9.12732 14.4375 9.38232 14.6925 9.38232 15C9.38232 15.3075 9.12732 15.5625 8.81982 15.5625Z" fill="black" fill-opacity="0.6"/>
</svg>
