<svg width="118" height="33" viewBox="0 0 118 33" fill="none" xmlns="http://www.w3.org/2000/svg">
<path d="M1.77309 32.8715C1.26347 32.8655 0.758474 32.772 0.279297 32.5949V31.2425C0.753894 31.396 1.24814 31.4771 1.74599 31.4831C2.6063 31.4831 3.26057 31.2185 3.7088 30.6893C4.15703 30.1602 4.523 29.2383 4.80676 27.9236L8.40977 10.4996H5.40593L5.61197 9.4957L8.61581 9.28827L9.12821 6.89593C9.4698 5.2236 10.0382 4.00853 10.8335 3.25073C11.6287 2.49292 12.7393 2.11401 14.1654 2.11401C14.9978 2.13465 15.8216 2.29153 16.6053 2.57865L16.2393 3.77344C15.5449 3.53252 14.8197 3.39648 14.0868 3.36965C13.2643 3.32866 12.4585 3.61525 11.8393 4.16893C11.2754 4.70364 10.8624 5.59328 10.6003 6.83785L10.0879 9.28827H13.7018L13.4686 10.4996H9.83308L6.14333 28.2804C5.82161 29.8845 5.31374 31.0526 4.61971 31.7846C3.92568 32.5166 2.97681 32.8789 1.77309 32.8715ZM14.7374 25.5202H13.3602L18.2401 2.26889H19.6173L14.7374 25.5202Z" fill="#172B39"/>
<path d="M28.702 8.96197C30.4588 8.96197 31.8188 9.50312 32.7822 10.5854C33.7455 11.6678 34.2262 13.1594 34.2244 15.0604C34.2384 16.9489 33.8816 18.8212 33.1752 20.5669C32.4776 22.2761 31.5233 23.5788 30.3124 24.4748C29.0952 25.3728 27.6257 25.8444 26.1238 25.819C24.3272 25.819 22.9627 25.2732 22.0301 24.1817C21.0975 23.0901 20.6312 21.5294 20.6312 19.4993C20.6182 17.659 20.982 15.8363 21.6993 14.1477C22.3057 12.6264 23.3032 11.3002 24.5866 10.3089C25.7787 9.41596 27.2232 8.94317 28.702 8.96197V8.96197ZM28.5854 10.248C27.3959 10.2393 26.2407 10.654 25.3186 11.4207C24.2714 12.3155 23.473 13.4752 23.0034 14.7838C22.4235 16.2591 22.1297 17.8352 22.1385 19.4246C22.1385 22.8302 23.5157 24.5329 26.2702 24.5329C27.4686 24.5475 28.6352 24.1391 29.5723 23.3768C30.5338 22.6061 31.3001 21.4703 31.8712 19.9695C32.4574 18.3921 32.7489 16.7167 32.7306 15.0299C32.7306 13.494 32.3692 12.314 31.6462 11.4898C30.9233 10.6656 29.903 10.2517 28.5854 10.248V10.248Z" fill="#172B39"/>
<path d="M47.9349 25.5204L47.0484 15.2706C46.9092 13.0378 46.8405 11.7121 46.8424 11.2935H46.7773C46.1699 12.7846 45.4653 14.2325 44.6681 15.6274L39.452 25.5204H37.7386L37.4458 9.27734H38.8013L38.9911 21.546L38.9477 23.8914H39.0345C39.6309 22.5564 40.3638 21.0814 41.2332 19.4662L46.6959 9.29118H47.8238L48.7618 19.4662C48.9009 20.9321 48.9696 22.4071 48.9678 23.8914H49.0546L49.407 22.9787L50.8873 19.4524L55.5747 9.27734H56.979L49.5398 25.5204H47.9349Z" fill="#172B39"/>
<path d="M62.0102 25.8188C61.3622 25.8465 60.7171 25.7168 60.1279 25.4403C59.5388 25.1639 59.0224 24.7485 58.6214 24.2285C57.7954 23.1665 57.3824 21.6795 57.3824 19.7675C57.3755 17.8351 57.7335 15.9195 58.437 14.1254C59.1383 12.3388 60.0609 10.9559 61.205 9.97684C62.2436 9.03635 63.582 8.51339 64.9707 8.50549C65.8293 8.483 66.6776 8.70007 67.4242 9.13331C68.1243 9.56444 68.6823 10.1991 69.0264 10.9559H69.1457L69.9807 8.81802H73.3777L69.8913 25.5257H66.5377L66.7437 23.3601H66.6841C65.3756 24.9993 63.8176 25.8188 62.0102 25.8188ZM63.7399 22.1875C64.4149 22.1875 65.0629 21.8528 65.6891 21.1863C66.3789 20.4044 66.8932 19.4785 67.1965 18.4731C67.5948 17.2234 67.7881 15.9151 67.7685 14.6011C67.7906 13.966 67.5907 13.3436 67.2046 12.8449C67.0256 12.6201 66.7982 12.4405 66.5401 12.3201C66.2819 12.1997 66 12.1417 65.7162 12.1507C65.0529 12.1507 64.4203 12.5093 63.8185 13.2266C63.1561 14.0644 62.6673 15.0307 62.3816 16.0669C62.0299 17.1979 61.8471 18.3763 61.8394 19.5628C61.8394 20.4386 62.003 21.0959 62.3301 21.5348C62.4951 21.7526 62.7098 21.926 62.9555 22.0398C63.2012 22.1536 63.4705 22.2043 63.7399 22.1875V22.1875Z" fill="#172B39"/>
<path d="M81.3027 25.8189C79.3399 25.8189 77.8343 25.2833 76.7861 24.2121C75.7378 23.1408 75.2128 21.6289 75.2109 19.6763C75.1831 17.7015 75.5521 15.7418 76.2954 13.9181C76.9274 12.3145 77.9913 10.926 79.3643 9.91334C80.6848 8.96976 82.2635 8.47519 83.8755 8.50006C85.5378 8.47417 87.1833 8.84247 88.6822 9.57592L87.3267 12.9971C86.8007 12.7666 86.2838 12.5675 85.776 12.3997C85.2161 12.2228 84.6324 12.137 84.0463 12.1453C83.2033 12.1519 82.3964 12.4954 81.7989 13.1022C81.0735 13.8317 80.5353 14.7322 80.2318 15.7241C79.8489 16.8764 79.6583 18.0862 79.6679 19.3029C79.6679 20.2599 79.8903 20.9799 80.3349 21.4629C80.5754 21.711 80.8649 21.9039 81.1842 22.0288C81.5034 22.1537 81.8451 22.2079 82.1865 22.1876C82.89 22.1948 83.5892 22.0759 84.2524 21.8363C84.9236 21.5865 85.5792 21.2946 86.2152 20.9624V24.638C84.6961 25.433 83.0099 25.8384 81.3027 25.8189V25.8189Z" fill="#172B39"/>
<path d="M96.1693 25.8189C94.1197 25.8189 92.5284 25.2566 91.3951 24.1318C90.2619 23.0071 89.6953 21.4178 89.6953 19.3638C89.6713 17.4136 90.0849 15.4837 90.9045 13.7217C91.6165 12.1419 92.7518 10.7997 94.1794 9.84973C95.5771 8.953 97.1996 8.48899 98.8506 8.51389C100.58 8.51389 101.929 8.91953 102.895 9.7308C103.862 10.5421 104.346 11.6557 104.346 13.0718C104.346 14.934 103.533 16.3713 101.906 17.3835C100.279 18.3958 97.9505 18.901 94.9195 18.8991H94.1713L94.1442 19.2144V19.5131C94.1228 19.9037 94.1785 20.2946 94.308 20.6628C94.4375 21.031 94.638 21.3689 94.8978 21.6566C95.3985 22.1802 96.1214 22.442 97.0667 22.442C97.846 22.4526 98.6234 22.3596 99.3792 22.1654C100.247 21.9088 101.091 21.5738 101.901 21.1642V24.555C100.114 25.4302 98.1506 25.8632 96.1693 25.8189V25.8189ZM98.5741 11.7415C97.7156 11.7415 96.9022 12.1407 96.1341 12.939C95.369 13.7408 94.8498 14.753 94.6403 15.8513H95.3045C96.8173 15.8513 97.9921 15.6098 98.8289 15.1267C99.672 14.6427 100.095 13.99 100.095 13.1631C100.111 12.2172 99.5988 11.7415 98.5741 11.7415Z" fill="#172B39"/>
<path d="M118 5.52311C118 5.54868 118 5.57407 117.999 5.60001C117.932 7.93393 114.832 11.9442 109.988 17.2831L109.643 16.4232C109.643 16.4232 109.738 16.2305 111.061 13.4838C112.047 11.4355 112.586 9.70894 112.837 8.35403C112.922 7.89155 112.973 7.47255 112.997 7.09866C113.02 6.74468 113.016 6.24057 112.825 5.66667C112.573 4.90757 112.121 4.43031 111.967 4.2703C111.828 4.12729 111.676 3.99322 111.511 3.86682C109.89 2.62224 107.137 2.14698 106.313 1.74934L105.841 0.84668C107.8 0.932891 109.601 1.03207 111.31 1.1307C111.31 1.1307 112.848 1.21965 114.598 1.66605C114.99 1.76597 115.481 1.91903 116.03 2.20725C116.212 2.30241 116.351 2.37493 116.512 2.48653C116.524 2.49493 116.536 2.50351 116.548 2.5121C117.147 2.93969 117.605 3.55869 117.837 4.28199C117.922 4.60182 118 5.0305 118 5.52311Z" fill="#F4511E"/>
</svg>
