<svg xmlns="http://www.w3.org/2000/svg" xmlns:xlink="http://www.w3.org/1999/xlink" version="1.1" width="18" height="18" viewBox="0 0 256 256" xml:space="preserve">
<desc>Created with Fabric.js 1.7.22</desc>
<defs>
</defs>
<g transform="translate(128 128) scale(0.72 0.72)" style="">
	<g style="stroke: none; stroke-width: 0; stroke-dasharray: none; stroke-linecap: butt; stroke-linejoin: miter; stroke-miterlimit: 10; fill: none; fill-rule: nonzero; opacity: 1;" transform="translate(-175.05 -175.05) scale(3.89 3.89)" >
	<path d="M 83.63 82.553 H 6.37 c -3.513 0 -6.37 -2.857 -6.37 -6.37 V 65.528 c 0 -1.104 0.896 -2 2 -2 s 2 0.896 2 2 v 10.654 c 0 1.307 1.063 2.37 2.37 2.37 h 77.26 c 1.307 0 2.37 -1.063 2.37 -2.37 V 28.15 c 0 -1.307 -1.063 -2.37 -2.37 -2.37 H 49.075 c -3.144 0 -6.128 -1.194 -8.405 -3.364 l -9.139 -8.71 c -1.529 -1.457 -3.534 -2.259 -5.646 -2.259 H 6.37 c -1.307 0 -2.37 1.063 -2.37 2.37 v 38.309 c 0 1.104 -0.896 2 -2 2 s -2 -0.896 -2 -2 V 13.817 c 0 -3.512 2.857 -6.37 6.37 -6.37 h 19.515 c 3.145 0 6.13 1.195 8.406 3.364 l 9.139 8.71 c 1.529 1.457 3.534 2.259 5.646 2.259 H 83.63 c 3.513 0 6.37 2.857 6.37 6.37 v 48.032 C 90 79.695 87.143 82.553 83.63 82.553 z" style="stroke: none; stroke-width: 1; stroke-dasharray: none; stroke-linecap: butt; stroke-linejoin: miter; stroke-miterlimit: 10; fill: rgb(0,0,0); fill-rule: nonzero; opacity: 1;" transform=" matrix(1 0 0 1 0 0) " stroke-linecap="round" />
	<path d="M 45 65.875 c -7.995 0 -14.5 -6.505 -14.5 -14.5 s 6.505 -14.5 14.5 -14.5 s 14.5 6.505 14.5 14.5 S 52.995 65.875 45 65.875 z M 45 40.875 c -5.79 0 -10.5 4.71 -10.5 10.5 c 0 5.79 4.71 10.5 10.5 10.5 c 5.79 0 10.5 -4.71 10.5 -10.5 C 55.5 45.585 50.79 40.875 45 40.875 z" style="stroke: none; stroke-width: 1; stroke-dasharray: none; stroke-linecap: butt; stroke-linejoin: miter; stroke-miterlimit: 10; fill: rgb(0,0,0); fill-rule: nonzero; opacity: 1;" transform=" matrix(1 0 0 1 0 0) " stroke-linecap="round" />
	<path d="M 49.062 57.133 c -0.486 0 -0.974 -0.176 -1.358 -0.532 l -4.062 -3.758 C 43.232 52.465 43 51.933 43 51.375 V 46 c 0 -1.104 0.896 -2 2 -2 s 2 0.896 2 2 v 4.501 l 3.42 3.164 c 0.811 0.75 0.859 2.016 0.109 2.826 C 50.136 56.917 49.599 57.133 49.062 57.133 z" style="stroke: none; stroke-width: 1; stroke-dasharray: none; stroke-linecap: butt; stroke-linejoin: miter; stroke-miterlimit: 10; fill: rgb(0,0,0); fill-rule: nonzero; opacity: 1;" transform=" matrix(1 0 0 1 0 0) " stroke-linecap="round" />
</g>
</g>
</svg>