<svg width="18" height="18" viewBox="0 0 18 18" fill="none" xmlns="http://www.w3.org/2000/svg">
<path d="M11.25 9.7124H6C5.6925 9.7124 5.4375 9.4574 5.4375 9.1499C5.4375 8.8424 5.6925 8.5874 6 8.5874H11.25C11.5575 8.5874 11.8125 8.8424 11.8125 9.1499C11.8125 9.4574 11.5575 9.7124 11.25 9.7124Z" fill="black" fill-opacity="0.87"/>
<path d="M9.285 12.7124H6C5.6925 12.7124 5.4375 12.4574 5.4375 12.1499C5.4375 11.8424 5.6925 11.5874 6 11.5874H9.285C9.5925 11.5874 9.8475 11.8424 9.8475 12.1499C9.8475 12.4574 9.5925 12.7124 9.285 12.7124Z" fill="black" fill-opacity="0.87"/>
<path fill-rule="evenodd" clip-rule="evenodd" d="M7.5 5.0625H10.5C12.0474 5.0625 12.4339 4.3068 12.5304 3.62528C14.2906 3.83597 15.1875 4.62571 15.1875 7.50007V12.0001C15.1875 14.7751 14.64 15.9376 11.25 15.9376H6.75C3.36 15.9376 2.8125 14.7751 2.8125 12.0001V7.50007C2.8125 4.61674 3.71505 3.83106 5.48612 3.62332C5.73304 5.0625 6.86138 5.0625 7.5 5.0625ZM5.46764 2.49975C5.67009 0.9375 6.84368 0.9375 7.5 0.9375H10.5C11.1554 0.9375 12.3267 0.9375 12.5315 2.49337C15.2116 2.79002 16.3125 4.27392 16.3125 7.49257V11.9926C16.3125 15.1276 15.465 17.0626 11.25 17.0626H6.75C2.535 17.0626 1.6875 15.1276 1.6875 12.0001V7.50007C1.6875 4.27468 2.78817 2.79035 5.46764 2.49975ZM6.5625 2.99266C6.56352 2.0625 6.75944 2.0625 7.5 2.0625H10.5C11.2386 2.0625 11.4355 2.0625 11.4375 2.98545C11.4366 3.00364 11.4366 3.0217 11.4375 3.03958C11.4372 3.74946 11.4206 3.9375 10.5 3.9375H7.5C6.76954 3.9375 6.56897 3.9375 6.56266 3.04486C6.56338 3.02767 6.56334 3.01026 6.5625 2.99266Z" fill="black" fill-opacity="0.87"/>
</svg>
