<svg width="18" height="18" viewBox="0 0 18 18" fill="none" xmlns="http://www.w3.org/2000/svg">
<path fill-rule="evenodd" clip-rule="evenodd" d="M5.4375 3.75C5.4375 4.0575 5.6925 4.3125 6 4.3125C6.3075 4.3125 6.5625 4.0575 6.5625 3.75V3.1875H11.4375V3.75C11.4375 4.0575 11.6925 4.3125 12 4.3125C12.3075 4.3125 12.5625 4.0575 12.5625 3.75V3.23839C14.3032 3.45801 15.1875 4.28542 15.1875 7.2375V11.865C15.1875 12.1374 15.1826 12.3948 15.1708 12.6375H12.3372C12.1227 11.1739 10.6244 10.1666 9.00005 10.1666C7.3757 10.1666 5.87739 11.1739 5.66294 12.6375H2.82923C2.81742 12.3948 2.8125 12.1374 2.8125 11.865V7.2375C2.8125 4.27328 3.70612 3.45376 5.4375 3.23702V3.75ZM6.68558 12.6375H11.3145C11.1027 11.8528 10.2195 11.1666 9.00005 11.1666C7.78059 11.1666 6.89737 11.8528 6.68558 12.6375ZM2.96126 13.7625C3.28425 15.2768 4.23466 15.9375 6.75 15.9375H11.25C13.7653 15.9375 14.7157 15.2768 15.0387 13.7625H2.96126ZM5.4375 1.5V2.10725C2.74839 2.41549 1.6875 3.8949 1.6875 7.2375V11.865C1.6875 15.075 2.535 17.0625 6.75 17.0625H11.25C15.465 17.0625 16.3125 15.075 16.3125 11.865V7.2375C16.3125 3.8949 15.2516 2.41549 12.5625 2.10725V1.5C12.5625 1.1925 12.3075 0.9375 12 0.9375C11.6925 0.9375 11.4375 1.1925 11.4375 1.5V2.0625H6.5625V1.5C6.5625 1.1925 6.3075 0.9375 6 0.9375C5.6925 0.9375 5.4375 1.1925 5.4375 1.5ZM9.00001 6.16666C8.35567 6.16666 7.83334 6.68899 7.83334 7.33333C7.83334 7.97766 8.35567 8.49999 9.00001 8.49999C9.64434 8.49999 10.1667 7.97766 10.1667 7.33333C10.1667 6.68899 9.64434 6.16666 9.00001 6.16666ZM6.83334 7.33333C6.83334 6.13671 7.80339 5.16666 9.00001 5.16666C10.1966 5.16666 11.1667 6.13671 11.1667 7.33333C11.1667 8.52994 10.1966 9.49999 9.00001 9.49999C7.80339 9.49999 6.83334 8.52994 6.83334 7.33333Z" fill="black" fill-opacity="0.87"/>
</svg>
