<svg width="18" height="18" viewBox="0 0 18 18" fill="none" xmlns="http://www.w3.org/2000/svg">
<path d="M6.1875 4.3125C5.88 4.3125 5.625 4.0575 5.625 3.75V1.5C5.625 1.1925 5.88 0.9375 6.1875 0.9375C6.495 0.9375 6.75 1.1925 6.75 1.5V3.75C6.75 4.0575 6.495 4.3125 6.1875 4.3125Z" fill="#F4511E"/>
<path d="M11.8125 4.3125C11.505 4.3125 11.25 4.0575 11.25 3.75V1.5C11.25 1.1925 11.505 0.9375 11.8125 0.9375C12.12 0.9375 12.375 1.1925 12.375 1.5V3.75C12.375 4.0575 12.12 4.3125 11.8125 4.3125Z" fill="#F4511E"/>
<path fill-rule="evenodd" clip-rule="evenodd" d="M13.47 3.9825C13.47 3.36 14.1825 3.0075 14.6775 3.375C15.555 4.0425 16.125 5.085 16.125 6.2775V12.8475C16.125 14.865 14.49 16.5 12.4725 16.5H5.5275C3.51 16.5 1.875 14.865 1.875 12.8475V6.2775C1.875 6.1725 1.8825 6.0675 1.89 5.9625C1.8975 5.8725 1.905 5.79 1.92 5.7075C1.935 5.595 1.9575 5.4825 1.9875 5.3775C2.0175 5.265 2.0475 5.1525 2.0925 5.04C2.0967 5.02951 2.10031 5.0196 2.10382 5.00995C2.11287 4.98512 2.1213 4.96201 2.1375 4.935C2.1675 4.8375 2.2125 4.7475 2.2575 4.6575C2.2575 4.6425 2.265 4.635 2.28 4.62C2.3325 4.515 2.3925 4.4025 2.46 4.305C2.4675 4.29 2.475 4.2825 2.4825 4.275L2.4825 4.275C2.5425 4.1775 2.61 4.08 2.6925 3.99C2.85 3.7875 3.0375 3.6 3.2475 3.435C3.25875 3.42375 3.27187 3.41438 3.285 3.405C3.29812 3.39563 3.31125 3.38625 3.3225 3.375C3.3525 3.3525 3.375 3.3375 3.405 3.3225C3.40875 3.31875 3.4125 3.31687 3.41625 3.315C3.42 3.31312 3.42375 3.31125 3.4275 3.3075C3.915 3.06 4.53 3.405 4.53 3.9825V4.0575C4.53 4.665 4.83 5.235 5.3025 5.565C5.37 5.61 5.445 5.6475 5.52 5.685C5.595 5.7225 5.67 5.7525 5.745 5.775C5.835 5.805 5.9325 5.8275 6.0375 5.835C6.1575 5.85 6.2775 5.85 6.3975 5.835C6.5025 5.8275 6.6 5.805 6.69 5.775C6.7725 5.7525 6.8475 5.7225 6.915 5.685C6.99 5.6475 7.065 5.61 7.1325 5.565C7.5975 5.2725 7.905 4.7475 7.905 4.155V3.375C7.905 2.9625 8.2425 2.625 8.655 2.625H9.345C9.7575 2.625 10.095 2.9625 10.095 3.375V4.155C10.095 5.145 10.95 5.94 11.9625 5.835C12.84 5.745 13.47 4.935 13.47 4.0575V3.9825ZM9.02997 9.6667C9.95044 9.6667 10.6966 8.9205 10.6966 8.00003C10.6966 7.07955 9.95044 6.33336 9.02997 6.33336C8.10949 6.33336 7.3633 7.07955 7.3633 8.00003C7.3633 8.9205 8.10949 9.6667 9.02997 9.6667ZM6 13C6 11.62 7.36 10.5 9.03 10.5C10.7 10.5 12.06 11.62 12.06 13C12.06 13.0933 11.9867 13.1667 11.8933 13.1667H6.16667C6.07333 13.1667 6 13.0933 6 13Z" fill="#F4511E"/>
</svg>
