<svg width="18" height="18" viewBox="0 0 18 18" fill="none" xmlns="http://www.w3.org/2000/svg">
<path fill-rule="evenodd" clip-rule="evenodd" d="M9.02295 0.884766C8.25552 0.884766 7.57269 1.30169 7.2185 1.95656C5.31174 2.68336 3.9524 4.53163 3.9524 6.68945V8.85695C3.9524 9.20945 3.7874 9.80945 3.6074 10.1095L2.7449 11.542C2.3999 12.112 2.3249 12.7495 2.5424 13.327C2.7524 13.9045 3.2324 14.347 3.8624 14.5645C4.6724 14.8357 5.5039 15.0406 6.34638 15.1793C6.48385 15.5916 6.71597 15.9712 7.02715 16.2824C7.55215 16.8074 8.27215 17.1074 9.01465 17.1074C10.2584 17.1074 11.3144 16.2987 11.6853 15.1788C12.5258 15.0402 13.3545 14.8354 14.1599 14.5645C14.7524 14.3695 15.2249 13.9195 15.4424 13.327C15.6599 12.7345 15.5999 12.082 15.2774 11.542L14.4224 10.117C14.2424 9.80945 14.0774 9.20195 14.0774 8.85695V6.68945C14.0774 4.53974 12.7283 2.69727 10.8328 1.96481C10.4802 1.29985 9.7943 0.884766 9.02295 0.884766ZM10.3352 15.344C9.89615 15.3793 9.45552 15.397 9.0149 15.397C8.57427 15.397 8.13364 15.3793 7.69445 15.344C7.73412 15.3941 7.77673 15.442 7.82215 15.4874C8.13715 15.8024 8.57215 15.9824 9.01465 15.9824C9.5486 15.9824 10.0257 15.7327 10.3352 15.344ZM5.0774 6.68945C5.0774 4.71995 6.52874 3.08868 8.41234 2.79801C8.78615 2.7463 9.17239 2.74377 9.56748 2.7904C11.4808 3.05898 12.9524 4.702 12.9524 6.68945V8.84945C12.9524 9.39695 13.1699 10.1995 13.4549 10.687L14.3174 12.1195C14.4674 12.367 14.4899 12.6595 14.3924 12.9295C14.2949 13.1995 14.0849 13.402 13.8149 13.492C10.6799 14.542 7.3574 14.542 4.2224 13.492C3.9149 13.387 3.6899 13.192 3.5999 12.937C3.5024 12.6895 3.5474 12.397 3.7124 12.1195L4.5749 10.687C4.8524 10.2145 5.0774 9.40445 5.0774 8.85695V6.68945Z" fill="black" fill-opacity="0.6"/>
</svg>
