<svg width="24" height="24" viewBox="0 0 24 24" fill="none" xmlns="http://www.w3.org/2000/svg">
<path fill-rule="evenodd" clip-rule="evenodd" d="M19.7071 4.29289C20.0976 4.68342 20.0976 5.31658 19.7071 5.70711L5.70711 19.7071C5.31658 20.0976 4.68342 20.0976 4.29289 19.7071C3.90237 19.3166 3.90237 18.6834 4.29289 18.2929L18.2929 4.29289C18.6834 3.90237 19.3166 3.90237 19.7071 4.29289Z" fill="black" fill-opacity="0.87"/>
<path fill-rule="evenodd" clip-rule="evenodd" d="M6.5 4.75C5.5335 4.75 4.75 5.5335 4.75 6.5C4.75 7.4665 5.5335 8.25 6.5 8.25C7.4665 8.25 8.25 7.4665 8.25 6.5C8.25 5.5335 7.4665 4.75 6.5 4.75ZM3.25 6.5C3.25 4.70507 4.70507 3.25 6.5 3.25C8.29493 3.25 9.75 4.70507 9.75 6.5C9.75 8.29493 8.29493 9.75 6.5 9.75C4.70507 9.75 3.25 8.29493 3.25 6.5Z" fill="black" fill-opacity="0.87"/>
<path fill-rule="evenodd" clip-rule="evenodd" d="M17.5 15.75C16.5335 15.75 15.75 16.5335 15.75 17.5C15.75 18.4665 16.5335 19.25 17.5 19.25C18.4665 19.25 19.25 18.4665 19.25 17.5C19.25 16.5335 18.4665 15.75 17.5 15.75ZM14.25 17.5C14.25 15.7051 15.7051 14.25 17.5 14.25C19.2949 14.25 20.75 15.7051 20.75 17.5C20.75 19.2949 19.2949 20.75 17.5 20.75C15.7051 20.75 14.25 19.2949 14.25 17.5Z" fill="black" fill-opacity="0.87"/>
</svg>
