<svg width="18" height="18" viewBox="0 0 18 18" fill="none" xmlns="http://www.w3.org/2000/svg">
<path d="M9 14.4375C7.6575 14.4375 6.5625 13.3425 6.5625 12C6.5625 10.6575 7.6575 9.5625 9 9.5625C10.3425 9.5625 11.4375 10.6575 11.4375 12C11.4375 13.3425 10.3425 14.4375 9 14.4375ZM9 10.6875C8.28 10.6875 7.6875 11.28 7.6875 12C7.6875 12.72 8.28 13.3125 9 13.3125C9.72 13.3125 10.3125 12.72 10.3125 12C10.3125 11.28 9.72 10.6875 9 10.6875Z" fill="black" fill-opacity="0.87"/>
<path fill-rule="evenodd" clip-rule="evenodd" d="M12.9375 6.93861V6C12.9375 3.6375 12.27 2.0625 9 2.0625C5.73 2.0625 5.0625 3.6375 5.0625 6V6.93861C5.12416 6.93787 5.18666 6.9375 5.25 6.9375H12.75C12.8133 6.9375 12.8758 6.93787 12.9375 6.93861ZM3.9375 7.00666V6C3.9375 3.825 4.4625 0.9375 9 0.9375C13.5375 0.9375 14.0625 3.825 14.0625 6V7.00666C16.331 7.2824 17.0625 8.4283 17.0625 11.25V12.75C17.0625 16.0575 16.0575 17.0625 12.75 17.0625H5.25C1.9425 17.0625 0.9375 16.0575 0.9375 12.75V11.25C0.9375 8.4283 1.66895 7.2824 3.9375 7.00666ZM2.0625 11.25C2.0625 8.5725 2.565 8.0625 5.25 8.0625H12.75C15.435 8.0625 15.9375 8.5725 15.9375 11.25V12.75C15.9375 15.4275 15.435 15.9375 12.75 15.9375H5.25C2.565 15.9375 2.0625 15.4275 2.0625 12.75V11.25Z" fill="black" fill-opacity="0.87"/>
</svg>
