<svg width="18" height="18" viewBox="0 0 18 18" fill="none" xmlns="http://www.w3.org/2000/svg">
<path d="M9 17.1075C8.4825 17.1075 7.995 16.845 7.65 16.3875L6.525 14.8875C6.5025 14.8575 6.4125 14.8125 6.3675 14.8125H6C2.8725 14.8125 0.9375 13.965 0.9375 9.75V6C0.9375 2.685 2.685 0.9375 6 0.9375H9C9.3075 0.9375 9.5625 1.1925 9.5625 1.5C9.5625 1.8075 9.3075 2.0625 9 2.0625H6C3.315 2.0625 2.0625 3.315 2.0625 6V9.75C2.0625 13.14 3.225 13.6875 6 13.6875H6.375C6.7575 13.6875 7.1925 13.905 7.425 14.2125L8.55 15.7125C8.8125 16.0575 9.1875 16.0575 9.45 15.7125L10.575 14.2125C10.8225 13.8825 11.2125 13.6875 11.625 13.6875H12C14.685 13.6875 15.9375 12.435 15.9375 9.75V6C15.9375 5.6925 16.1925 5.4375 16.5 5.4375C16.8075 5.4375 17.0625 5.6925 17.0625 6V9.75C17.0625 13.065 15.315 14.8125 12 14.8125H11.625C11.565 14.8125 11.5125 14.8425 11.475 14.8875L10.35 16.3875C10.005 16.845 9.5175 17.1075 9 17.1075Z" fill="#03A9F4"/>
<path d="M9 9C8.58 9 8.25 8.6625 8.25 8.25C8.25 7.8375 8.5875 7.5 9 7.5C9.4125 7.5 9.75 7.8375 9.75 8.25C9.75 8.6625 9.42 9 9 9Z" fill="#03A9F4"/>
<path d="M12 9C11.58 9 11.25 8.6625 11.25 8.25C11.25 7.8375 11.5875 7.5 12 7.5C12.4125 7.5 12.75 7.8375 12.75 8.25C12.75 8.6625 12.42 9 12 9Z" fill="#03A9F4"/>
<path d="M6 9C5.58 9 5.25 8.6625 5.25 8.25C5.25 7.8375 5.5875 7.5 6 7.5C6.4125 7.5 6.75 7.8375 6.75 8.25C6.75 8.6625 6.42 9 6 9Z" fill="#03A9F4"/>
<path d="M13.4998 5.8125C12.8548 5.8125 11.3323 5.0475 10.8673 3.645C10.6798 3.09 10.7248 2.4525 10.9873 1.95C11.2198 1.5 11.6098 1.17 12.0898 1.02C12.5773 0.869999 13.0948 1.07665 13.4998 1.32415C13.9048 1.07665 14.4223 0.869999 14.9173 1.02C15.3973 1.17 15.7873 1.5 16.0198 1.95C16.2823 2.4525 16.3273 3.09 16.1398 3.645C15.6673 5.07 14.0773 5.8125 13.4998 5.8125ZM11.9323 3.285C12.2473 4.23 13.3198 4.665 13.5148 4.6875C13.7323 4.665 14.7823 4.1775 15.0748 3.2925C15.1648 3.0225 15.1423 2.7 15.0223 2.4675C14.9248 2.28 14.7823 2.16 14.5873 2.1C14.3773 2.025 14.0923 2.0625 13.9648 2.25C13.8598 2.4 13.6948 2.49 13.5148 2.4975C13.3348 2.4975 13.1623 2.415 13.0498 2.2725C12.8923 2.07 12.6148 2.04 12.4123 2.1C12.2173 2.16 12.0748 2.28 11.9773 2.4675C11.8648 2.7 11.8423 3.015 11.9323 3.285Z" fill="#E91E63"/>
<path d="M11.5 3.5V2.5L12 2H12.5H13.5H15L15.5 2.5V3.5L14.5 4.5L14 5H13L12 4.5L11.5 3.5Z" fill="#E91E63"/>
</svg>
