<svg width="18" height="18" viewBox="0 0 18 18" fill="none" xmlns="http://www.w3.org/2000/svg">
<path d="M11.25 8.8125H5.25C4.9425 8.8125 4.6875 8.5575 4.6875 8.25C4.6875 7.9425 4.9425 7.6875 5.25 7.6875H11.25C11.5575 7.6875 11.8125 7.9425 11.8125 8.25C11.8125 8.5575 11.5575 8.8125 11.25 8.8125Z" fill="black" fill-opacity="0.87"/>
<path d="M9 11.8125H5.25C4.9425 11.8125 4.6875 11.5575 4.6875 11.25C4.6875 10.9425 4.9425 10.6875 5.25 10.6875H9C9.3075 10.6875 9.5625 10.9425 9.5625 11.25C9.5625 11.5575 9.3075 11.8125 9 11.8125Z" fill="black" fill-opacity="0.87"/>
<path fill-rule="evenodd" clip-rule="evenodd" d="M5.4375 3.75C5.4375 4.0575 5.6925 4.3125 6 4.3125C6.3075 4.3125 6.5625 4.0575 6.5625 3.75V3.1875H11.4375V3.75C11.4375 4.0575 11.6925 4.3125 12 4.3125C12.3075 4.3125 12.5625 4.0575 12.5625 3.75V3.23982C14.3015 3.46077 15.1875 4.2859 15.1875 7.2375V11.4375H13.5C11.685 11.4375 10.6875 12.435 10.6875 14.25V15.9375H6.75C3.36 15.9375 2.8125 14.7375 2.8125 11.865V7.2375C2.8125 4.27328 3.70612 3.45376 5.4375 3.23702V3.75ZM11.2849 17.0614C11.2733 17.0621 11.2617 17.0625 11.25 17.0625H6.75C2.535 17.0625 1.6875 15.075 1.6875 11.865V7.2375C1.6875 3.8949 2.74839 2.41549 5.4375 2.10725V1.5C5.4375 1.1925 5.6925 0.9375 6 0.9375C6.3075 0.9375 6.5625 1.1925 6.5625 1.5V2.0625H11.4375V1.5C11.4375 1.1925 11.6925 0.9375 12 0.9375C12.3075 0.9375 12.5625 1.1925 12.5625 1.5V2.11012C15.2581 2.42459 16.3125 3.90516 16.3125 7.2375V12C16.3125 12.1306 16.2665 12.2517 16.19 12.3479C16.1768 12.3651 16.1627 12.3816 16.1475 12.3975L11.6475 16.8975C11.5507 16.9943 11.422 17.0529 11.2849 17.0614ZM11.8125 14.25C11.8125 13.065 12.315 12.5625 13.5 12.5625H14.3925L11.8125 15.1425V14.25Z" fill="black" fill-opacity="0.87"/>
</svg>
