<svg width="18" height="18" viewBox="0 0 18 18" fill="none" xmlns="http://www.w3.org/2000/svg">
<path d="M14.2051 4.06508L10.3276 1.82258C9.58506 1.39508 8.42256 1.39508 7.68006 1.82258L3.76506 4.08008C2.21256 5.13008 2.12256 5.28758 2.12256 6.96008V11.0326C2.12256 12.7051 2.21256 12.8701 3.79506 13.9351L7.67256 16.1776C8.04756 16.3951 8.52756 16.5001 9.00006 16.5001C9.47256 16.5001 9.95256 16.3951 10.3201 16.1776L14.2351 13.9201C15.7876 12.8701 15.8776 12.7126 15.8776 11.0401V6.96008C15.8776 5.28758 15.7876 5.13008 14.2051 4.06508ZM9.00006 11.4376C7.65756 11.4376 6.56256 10.3426 6.56256 9.00008C6.56256 7.65758 7.65756 6.56258 9.00006 6.56258C10.3426 6.56258 11.4376 7.65758 11.4376 9.00008C11.4376 10.3426 10.3426 11.4376 9.00006 11.4376Z" fill="#F4511E" fill-opacity="0.87"/>
</svg>
