<svg width="18" height="18" viewBox="0 0 18 18" fill="none" xmlns="http://www.w3.org/2000/svg">
<path d="M9.00018 16.9726C8.49768 16.9726 7.98768 16.8601 7.59018 16.6276L3.46518 14.2501C1.78518 13.1176 1.68018 12.9451 1.68018 11.1676V6.8326C1.68018 5.0551 1.77768 4.8826 3.42768 3.7651L7.58268 1.3651C8.37018 0.907598 9.60768 0.907598 10.3952 1.3651L14.5352 3.7501C16.2152 4.8826 16.3202 5.0551 16.3202 6.8326V11.1601C16.3202 12.9376 16.2227 13.1101 14.5727 14.2276L10.4177 16.6276C10.0127 16.8601 9.50268 16.9726 9.00018 16.9726ZM9.00018 2.1526C8.68518 2.1526 8.37768 2.2126 8.16018 2.3401L4.03518 4.7251C2.81268 5.5501 2.81268 5.5501 2.81268 6.8326V11.1601C2.81268 12.4426 2.81268 12.4426 4.06518 13.2901L8.16018 15.6526C8.60268 15.9076 9.40518 15.9076 9.84768 15.6526L13.9727 13.2676C15.1877 12.4426 15.1877 12.4426 15.1877 11.1601V6.8326C15.1877 5.5501 15.1877 5.5501 13.9352 4.7026L9.84018 2.3401C9.62268 2.2126 9.31518 2.1526 9.00018 2.1526Z" fill="black" fill-opacity="0.87"/>
<path d="M9 11.8125C7.4475 11.8125 6.1875 10.5525 6.1875 9C6.1875 7.4475 7.4475 6.1875 9 6.1875C10.5525 6.1875 11.8125 7.4475 11.8125 9C11.8125 10.5525 10.5525 11.8125 9 11.8125ZM9 7.3125C8.07 7.3125 7.3125 8.07 7.3125 9C7.3125 9.93 8.07 10.6875 9 10.6875C9.93 10.6875 10.6875 9.93 10.6875 9C10.6875 8.07 9.93 7.3125 9 7.3125Z" fill="black" fill-opacity="0.87"/>
</svg>
