<svg width="18" height="18" viewBox="0 0 18 18" fill="none" xmlns="http://www.w3.org/2000/svg">
<path d="M12.75 17.0625H5.25C1.9425 17.0625 0.9375 16.0575 0.9375 12.75V5.25C0.9375 1.9425 1.9425 0.9375 5.25 0.9375H6.375C7.6875 0.9375 8.1 1.365 8.625 2.0625L9.75 3.5625C9.9975 3.8925 10.035 3.9375 10.5 3.9375H12.75C16.0575 3.9375 17.0625 4.9425 17.0625 8.25V12.75C17.0625 16.0575 16.0575 17.0625 12.75 17.0625ZM5.25 2.0625C2.5725 2.0625 2.0625 2.5725 2.0625 5.25V12.75C2.0625 15.4275 2.5725 15.9375 5.25 15.9375H12.75C15.4275 15.9375 15.9375 15.4275 15.9375 12.75V8.25C15.9375 5.5725 15.4275 5.0625 12.75 5.0625H10.5C9.54 5.0625 9.225 4.7325 8.85 4.2375L7.725 2.7375C7.335 2.22 7.2225 2.0625 6.375 2.0625H5.25Z" fill="black" fill-opacity="0.87"/>
</svg>
