<svg width="18" height="18" viewBox="0 0 18 18" fill="none" xmlns="http://www.w3.org/2000/svg">
<path fill-rule="evenodd" clip-rule="evenodd" d="M7.5 15.5625H12.75C16.0575 15.5625 17.0625 14.5575 17.0625 11.25C17.0625 10.9425 16.8075 10.6875 16.5 10.6875C15.78 10.6875 15.1875 10.095 15.1875 9.375C15.1875 8.655 15.78 8.0625 16.5 8.0625C16.8075 8.0625 17.0625 7.8075 17.0625 7.5V6.75C17.0625 3.4425 16.0575 2.4375 12.75 2.4375H7.5H5.25C1.9425 2.4375 0.9375 3.4425 0.9375 6.75V7.125C0.9375 7.4325 1.1925 7.6875 1.5 7.6875C2.22 7.6875 2.8125 8.28 2.8125 9C2.8125 9.72 2.22 10.3125 1.5 10.3125C1.1925 10.3125 0.9375 10.5675 0.9375 10.875V11.25C0.9375 14.5575 1.9425 15.5625 5.25 15.5625H7.5ZM6.9375 14.4375H5.25C2.61 14.4375 2.0775 13.95 2.0625 11.37C3.135 11.115 3.9375 10.1475 3.9375 9C3.9375 7.8525 3.135 6.885 2.0625 6.63C2.0775 4.05 2.61 3.5625 5.25 3.5625H6.9375V4.875C6.9375 5.1825 7.1925 5.4375 7.5 5.4375C7.8075 5.4375 8.0625 5.1825 8.0625 4.875V3.5625H12.75C15.435 3.5625 15.9375 4.0725 15.9375 6.75V7.005C14.865 7.26 14.0625 8.2275 14.0625 9.375C14.0625 10.5225 14.8575 11.49 15.93 11.745C15.8625 13.995 15.255 14.4375 12.75 14.4375H8.0625V13.125C8.0625 12.8175 7.8075 12.5625 7.5 12.5625C7.1925 12.5625 6.9375 12.8175 6.9375 13.125V14.4375ZM7.5 10.9341C7.1925 10.9341 6.9375 10.6791 6.9375 10.3716V7.61914C6.9375 7.31164 7.1925 7.05664 7.5 7.05664C7.8075 7.05664 8.0625 7.31164 8.0625 7.61914V10.3716C8.0625 10.6866 7.8075 10.9341 7.5 10.9341Z" fill="black" fill-opacity="0.6"/>
</svg>
