<svg width="18" height="18" viewBox="0 0 18 18" fill="none" xmlns="http://www.w3.org/2000/svg">
<path d="M12.1425 1.5H5.8575C3.1275 1.5 1.5 3.1275 1.5 5.8575V12.135C1.5 14.8725 3.1275 16.5 5.8575 16.5H12.135C14.865 16.5 16.4925 14.8725 16.4925 12.1425V5.8575C16.5 3.1275 14.8725 1.5 12.1425 1.5ZM12.945 7.47L11.2125 9.705C10.995 9.9825 10.6875 10.1625 10.335 10.2C9.9825 10.245 9.6375 10.1475 9.36 9.93L7.9875 8.85C7.935 8.805 7.875 8.805 7.845 8.8125C7.815 8.8125 7.7625 8.8275 7.7175 8.8875L5.9325 11.205C5.82 11.3475 5.655 11.4225 5.49 11.4225C5.37 11.4225 5.25 11.385 5.145 11.3025C4.8975 11.115 4.8525 10.7625 5.04 10.515L6.825 8.1975C7.0425 7.92 7.35 7.74 7.7025 7.695C8.0475 7.65 8.4 7.7475 8.6775 7.965L10.05 9.045C10.1025 9.09 10.155 9.09 10.1925 9.0825C10.2225 9.0825 10.275 9.0675 10.32 9.0075L12.0525 6.7725C12.24 6.525 12.6 6.48 12.84 6.675C13.0875 6.8775 13.1325 7.23 12.945 7.47Z" fill="#F4511E" fill-opacity="0.87"/>
</svg>
