<svg width="18" height="18" viewBox="0 0 18 18" fill="none" xmlns="http://www.w3.org/2000/svg">
<path d="M11.25 17.0625H6.75C2.6775 17.0625 0.9375 15.3225 0.9375 11.25V6.75C0.9375 2.6775 2.6775 0.9375 6.75 0.9375H11.25C15.3225 0.9375 17.0625 2.6775 17.0625 6.75V11.25C17.0625 15.3225 15.3225 17.0625 11.25 17.0625ZM6.75 2.0625C3.2925 2.0625 2.0625 3.2925 2.0625 6.75V11.25C2.0625 14.7075 3.2925 15.9375 6.75 15.9375H11.25C14.7075 15.9375 15.9375 14.7075 15.9375 11.25V6.75C15.9375 3.2925 14.7075 2.0625 11.25 2.0625H6.75Z" fill="black" fill-opacity="0.87"/>
<path d="M5.49758 11.43C5.37758 11.43 5.25758 11.3925 5.15258 11.31C4.90508 11.1225 4.86008 10.77 5.04758 10.5225L6.83258 8.205C7.05008 7.9275 7.35758 7.74751 7.71008 7.70251C8.05508 7.65751 8.40758 7.75501 8.68508 7.97251L10.0576 9.0525C10.1101 9.0975 10.1626 9.0975 10.2001 9.09C10.2301 9.09 10.2826 9.07501 10.3276 9.01501L12.0601 6.78001C12.2476 6.53251 12.6076 6.48751 12.8476 6.68251C13.0951 6.87001 13.1401 7.22251 12.9451 7.47001L11.2126 9.705C10.9951 9.9825 10.6876 10.1625 10.3351 10.2C9.98258 10.245 9.63758 10.1475 9.36008 9.93L7.98758 8.85001C7.93508 8.80501 7.87508 8.80501 7.84508 8.81251C7.81508 8.81251 7.76258 8.82751 7.71758 8.88751L5.93258 11.205C5.83508 11.355 5.67008 11.43 5.49758 11.43Z" fill="black" fill-opacity="0.87"/>
</svg>
