<svg width="18" height="18" viewBox="0 0 18 18" fill="none" xmlns="http://www.w3.org/2000/svg">
<path fill-rule="evenodd" clip-rule="evenodd" d="M5.4375 3.75C5.4375 4.0575 5.6925 4.3125 6 4.3125C6.3075 4.3125 6.5625 4.0575 6.5625 3.75V3.1875H11.4375V3.75C11.4375 4.0575 11.6925 4.3125 12 4.3125C12.3075 4.3125 12.5625 4.0575 12.5625 3.75V3.21386C14.2909 3.38442 15.1514 4.38402 15.1864 6.25488H2.81361C2.84858 4.38402 3.70914 3.38442 5.4375 3.21386V3.75ZM2.8125 7.37988V12.75C2.8125 14.895 3.855 15.9375 6 15.9375H12C14.145 15.9375 15.1875 14.895 15.1875 12.75V7.37988H2.8125ZM5.4375 1.5V2.08593C3.04787 2.29078 1.6875 3.83085 1.6875 6.375V12.75C1.6875 15.4875 3.2625 17.0625 6 17.0625H12C14.7375 17.0625 16.3125 15.4875 16.3125 12.75V6.375C16.3125 3.83085 14.9521 2.29078 12.5625 2.08593V1.5C12.5625 1.1925 12.3075 0.9375 12 0.9375C11.6925 0.9375 11.4375 1.1925 11.4375 1.5V2.0625H6.5625V1.5C6.5625 1.1925 6.3075 0.9375 6 0.9375C5.6925 0.9375 5.4375 1.1925 5.4375 1.5Z" fill="black" fill-opacity="0.87"/>
<path d="M6.375 10.875C6.2775 10.875 6.18 10.8525 6.09 10.815C6 10.7775 5.91751 10.725 5.84251 10.6575C5.77501 10.5825 5.72249 10.5 5.68499 10.41C5.64749 10.32 5.625 10.2225 5.625 10.125C5.625 9.93001 5.70751 9.73502 5.84251 9.59252C5.91751 9.52502 6 9.4725 6.09 9.435C6.225 9.375 6.37501 9.36 6.52501 9.39C6.57001 9.3975 6.615 9.4125 6.66 9.435C6.705 9.45 6.75 9.47252 6.795 9.50252C6.8325 9.53252 6.86999 9.56252 6.90749 9.59252C6.93749 9.63002 6.97499 9.66751 6.99749 9.70501C7.02749 9.75001 7.05001 9.79501 7.06501 9.84001C7.08751 9.885 7.10251 9.93 7.11001 9.975C7.11751 10.0275 7.125 10.0725 7.125 10.125C7.125 10.32 7.04249 10.515 6.90749 10.6575C6.76499 10.7925 6.57 10.875 6.375 10.875Z" fill="black" fill-opacity="0.87"/>
<path d="M9 10.8751C8.805 10.8751 8.61001 10.7926 8.46751 10.6576C8.43751 10.6201 8.40751 10.5826 8.37751 10.5451C8.34751 10.5001 8.32499 10.4552 8.30999 10.4102C8.28749 10.3652 8.27249 10.3202 8.26499 10.2752C8.25749 10.2227 8.25 10.1776 8.25 10.1251C8.25 10.0276 8.27249 9.93015 8.30999 9.84015C8.34749 9.75015 8.40001 9.66766 8.46751 9.59266C8.67751 9.38266 9.015 9.31514 9.285 9.43514C9.3825 9.47264 9.45749 9.52516 9.53249 9.59266C9.66749 9.73516 9.75 9.93015 9.75 10.1251C9.75 10.1776 9.74251 10.2227 9.73501 10.2752C9.72751 10.3202 9.71251 10.3652 9.69001 10.4102C9.67501 10.4552 9.65249 10.5001 9.62249 10.5451C9.59249 10.5826 9.56249 10.6201 9.53249 10.6576C9.45749 10.7251 9.3825 10.7777 9.285 10.8152C9.195 10.8527 9.0975 10.8751 9 10.8751Z" fill="black" fill-opacity="0.87"/>
<path d="M6.375 13.5001C6.2775 13.5001 6.18 13.4777 6.09 13.4402C6 13.4027 5.91751 13.3501 5.84251 13.2826C5.77501 13.2076 5.72249 13.1327 5.68499 13.0352C5.64749 12.9452 5.625 12.8476 5.625 12.7501C5.625 12.5551 5.70751 12.3602 5.84251 12.2177C5.91751 12.1502 6 12.0976 6.09 12.0601C6.3675 11.9401 6.69749 12.0077 6.90749 12.2177C6.93749 12.2552 6.97499 12.2927 6.99749 12.3302C7.02749 12.3752 7.05001 12.4201 7.06501 12.4651C7.08751 12.5101 7.10251 12.5551 7.11001 12.6076C7.11751 12.6526 7.125 12.7051 7.125 12.7501C7.125 12.9451 7.04249 13.1401 6.90749 13.2826C6.76499 13.4176 6.57 13.5001 6.375 13.5001Z" fill="black" fill-opacity="0.87"/>
</svg>
